<?xml version="1.0" encoding="utf-8"?>
<!-- Generator: Adobe Illustrator 19.0.0, SVG Export Plug-In . SVG Version: 6.00 Build 0)  -->
<svg version="1.1" id="Layer_1" xmlns="http://www.w3.org/2000/svg" xmlns:xlink="http://www.w3.org/1999/xlink" x="0px" y="0px"
	 viewBox="211 -157.3 492.8 385.3" style="enable-background:new 211 -157.3 492.8 385.3;" xml:space="preserve">
<style type="text/css">
	.st0{fill:#00AB97;}
	.st1{fill:none;}
	.st2{fill:#EFBFA5;}
	.st3{fill:#353A85;}
	.st4{fill:#292949;}
	.st5{fill:#BABCBE;}
	.st6{fill:#EFB118;}
	.st7{fill:#5D66D3;}
	.st8{fill:#EED5D5;}
	.st9{fill:#9EB79C;}
	.st10{fill:#B0C0BA;}
	.st11{fill:#8CABEF;}
	.st12{fill:#3B3387;}
	.st13{fill:#DDDAE8;}
	.st14{fill:#474EBB;}
	.st15{opacity:0.13;}
	.st16{clip-path:url(#SVGID_2_);fill:#000100;}
	.st17{opacity:0.64;}
	.st18{clip-path:url(#SVGID_4_);fill:#5D66D3;}
	.st19{opacity:0.11;}
	.st20{clip-path:url(#SVGID_6_);fill:#000100;}
	.st21{fill:#FFFFFF;}
	.st22{fill:#DFD8C7;}
	.st23{fill:#C1BBAC;}
	.st24{fill:#CBC4B5;}
	.st25{fill:#F4F4F4;}
	.st26{opacity:5.000300e-002;}
	.st27{clip-path:url(#SVGID_8_);fill:#272525;}
	.st28{clip-path:url(#SVGID_10_);fill:#272525;}
	.st29{fill:#FFC107;}
	.st30{opacity:8.000200e-002;}
	.st31{clip-path:url(#SVGID_12_);fill:#272525;}
	.st32{fill:#B97262;}
	.st33{opacity:0.1;}
	.st34{clip-path:url(#SVGID_14_);fill:#272525;}
	.st35{opacity:0.2;}
	.st36{clip-path:url(#SVGID_16_);fill:#272525;}
	.st37{clip-path:url(#SVGID_18_);fill:#272525;}
</style>
<g>
	<path class="st0" d="M431.5-161.7c0-0.1-0.1-0.3-0.1-0.4v0.4H431.5z"/>
</g>
<g>
	<path class="st0" d="M431.4-154.2c0-0.1,0.1-0.2,0.1-0.4h-0.1V-154.2z"/>
</g>
<g>
	<line class="st1" x1="421.5" y1="-174.5" x2="421.5" y2="-174.5"/>
</g>
<g>
	<line class="st1" x1="415.5" y1="-169.4" x2="415.5" y2="-169.4"/>
</g>
<g>
	<line class="st1" x1="418.1" y1="-183.9" x2="418.1" y2="-183.9"/>
</g>
<g>
	<line class="st1" x1="409.1" y1="-175.7" x2="409.1" y2="-175.7"/>
</g>
<g>
	<path class="st2" d="M254.6,0.6c1.1-0.6,2.8-0.8,4.1-1.6c0.7-0.4,0.6-1.9,2.1-1.2c0.5,0.3,1.4,1,2.4,1.5c1.5,0.7,3.6,0.9,5.5,0.6
		c7.3-0.9,14.6-1.8,22-1.8c0.4,0,0.8,0,1.2-0.2c0.7-0.4,0.8-1.1,1-1.8c1-3.2,2.2-6.4,3.8-9.4c1.5-2.7,3.1-5.2,5.6-6.9
		c2.5-1.8,5.7-2.5,8.5-1.3c2.1,0.9,3.7,2.5,4,4.8c0.6,5.7-4.9,9.4-8.3,13c-3.2,3.4-6,6.3-9.3,9.5c-0.4,0.4-0.8,0.7-1.3,0.9
		s-1.2,0.2-1.7,0.1c-7.3-0.7-14.5-1.7-21.8-0.8c-2,0.2-3.8-0.3-5.7,0.1c-1.2,0.3-1.9,1.4-3.1,1.9c-1.1,0.5-2.5,0.9-3.7,0.9
		c-2.7-0.1-5.6-2.6-6.3-5.3C253.2,2,253.7,1.1,254.6,0.6"/>
	<path class="st3" d="M306.6-5.7c-4-1.9-8.3-3.3-12.1-5.5c1.8-3.4,7.3-17.3,8.1-18.9c3.4-6.3,4.1-9,8.3-12.2
		c8.8-6.6,18.1-0.9,16.8,9.5c-1.4,11.3-8.4,20.5-15.7,28.7c-0.2,0.2-0.4,0.3-0.6,0.4c-0.3,0.1-0.6-0.1-0.9-0.2
		C309.2-4.5,307.9-5.1,306.6-5.7"/>
	<path class="st2" d="M304,151.5c-1.5,0-2.8-0.3-4.3-0.4c-0.7-14.1,0.6-29,1.2-43.2c3.6,0.2,7.3,0.4,10.9,0.6
		c-2.5,7.6-4.3,15.4-5.4,23.4C306.3,133.1,304.2,151.5,304,151.5"/>
	<path class="st4" d="M299.3,148.3c-0.9-0.2-1.4,0.2-2,0.8c-0.3,0.3-0.6,0.8-1,1c-0.4,0.2-0.8,0.3-1.3,0.3c-2.6,0.3-8.7,0.2-5.4,4.5
		c2.9,4,10.7,2.4,15.2,1.3c0.3-0.1,0.6-0.1,0.8-0.3c0.2-0.2,0.4-0.6,0.5-0.9c0.5-1.9,1.2-4.2-1.1-5c-1-0.3-1.9,0.3-2.9,0
		S300.2,148.5,299.3,148.3"/>
	<path class="st4" d="M292.8,116.4c7.4-0.1,14.8-0.3,22.2-0.4c6-28.5,11.3-57.2,15.8-86c0.4-2.2,0.7-4.6,0.1-6.7
		c-1.2-4.1-5.6-6.4-9.8-7.2c-6.5-1.2-18.5,0.5-21.9,7.3c-3.5,7.2-2.9,20-3.8,27.9C293.1,72.8,292.2,94.6,292.8,116.4"/>
	<path class="st2" d="M346.4,151.5c1.5,0,2.8-0.3,4.3-0.4c0.7-14.1-0.6-29-1.2-43.2c-3.6,0.2-7.3,0.4-10.9,0.6
		c2.5,7.6,4.3,15.4,5.4,23.4C344.2,133.1,346.2,151.5,346.4,151.5"/>
	<path class="st4" d="M351.1,148.3c0.9-0.2,1.4,0.2,2,0.8c0.3,0.3,0.6,0.8,1,1s0.8,0.3,1.3,0.3c2.6,0.3,8.7,0.2,5.4,4.5
		c-2.9,4-10.7,2.4-15.2,1.3c-0.3-0.1-0.6-0.1-0.8-0.3c-0.2-0.2-0.4-0.6-0.5-0.9c-0.5-1.9-1.2-4.2,1.1-5c1-0.3,1.9,0.3,2.9,0
		C349.4,149.7,350.2,148.5,351.1,148.3"/>
	<path class="st4" d="M357.7,116.4c-7.4-0.1-14.8-0.3-22.2-0.4c-6-28.5-11.3-57.2-15.8-86c-0.4-2.2-0.7-4.6-0.1-6.7
		c1.2-4.1,5.6-6.4,9.8-7.2c6.5-1.2,18.5,0.5,21.9,7.3c3.5,7.2,2.9,20,3.8,27.9C357.4,72.8,358.3,94.6,357.7,116.4"/>
	<path class="st3" d="M338.7-40.1c5.9,5.7,10.4,12.9,13.1,20.4c4.7,13.3,4.8,27.6,4.9,41.5c0,4.6,0,9.3,0,13.9
		c0,4.6-0.4,5.5-5.4,4.9c-9.2-1.1-18.8-3-27.1-7.1c-4-1.9-7.7-4.4-11.8-5.9c-6-2.2-12.2-1.2-18.2-2.7c2.6-7.8,4.5-14.5,5.8-22.6
		c1.4-8.3,2.6-17.4,4.6-25.6c1.2-4.9,3.5-9.5,5.7-14.1c1.5-3,3.2-6.2,5.8-8.4C323.9-52.3,332.7-45.7,338.7-40.1"/>
	<path class="st2" d="M317.2-59.7c1.1,2.5,3,4.5,4.5,6.7s2,4.2,2.4,6.7c0.3,1.8,0.9,3.3,3.1,3.6c4.2,0.6,3-2.8,3.9-5.3
		c1.1-2.9,3.4-5.1,5-7.7c4.6-7.4,3.3-21.9-6.3-25C319.2-84.1,313.8-67.1,317.2-59.7"/>
	<path class="st4" d="M334.1-66.8c1.2,0,2.5,0.1,3.4,0.9s0.8,2.6-0.4,2.7c-1.1,0.2-2.4-0.9-3.1-0.1c-0.4,0.5,0,1.2,0.2,1.7
		c1.1,2.1,1.4,4.6,0.9,6.9c0.4,0.4,1.1,0,1.5-0.4c1.9-2.1,3.4-4.5,4.4-7.2c0.4,0.6,0.9,1.2,1.6,1.6c-0.4-1-0.1-2.1,0.1-3.1
		c0.9-3.7,1.5-8.1-1.1-11.1c-1.4-1.6-3.5-2.6-5.6-3s-4.3-0.3-6.4-0.2c-0.9,0-2,0.2-2.3,1.1c2,0.8,4.1,2.4,5.1,4.3
		C332.7-72.1,333.9-66.8,334.1-66.8"/>
	<path class="st4" d="M329.8-75.7c0.1,0.1,0.1,0.1,0.2,0.2c0.9,0.7,1.8,1.5,2.9,1.8c1.6,0.4,3.3-0.3,4.9,0.2
		c1.8,0.6,2.9,2.7,4.2,3.9c2.1,2,4.7,3.5,7.5,4.4c1.4,0.4,2.9,0.7,4.4,0.8c0.7,0,1.6,0.2,2.2,0c0.9-0.2,0.9-0.6-0.1-0.9
		c-2.9-0.9-3.9-5.1-3.6-7.8c0.2-2.2,0.9-4.4,0.1-6.4c-0.6-1.5-2-2.3-3.3-3.2c-1.4-1-3-0.7-4.6-1.2c-1.7-0.5-3.1-1.8-4.8-2.2
		c-1.8-0.4-3.7,0.5-5.5,0.8c-1.5,0.3-3.1,0.3-4.6-0.1c-1.4-0.3-2.7-0.8-4.1-0.8c-2.1,0-3.9,1.3-5.1,3c-1.7,2.4-2.8,6.4-2.2,9.5
		c-0.1-0.5,1.5-2.2,1.9-2.6c0.7-0.8,1.6-1.5,2.6-1.7C325-78.4,327.8-77.1,329.8-75.7"/>
	<path class="st5" d="M249,19.7c0,0,2.3,10.8,0.8,15.7h4.1l-1.3-17.3L249,19.7z"/>
	<path class="st5" d="M253.7,33.5c-1.2,0.2-2.3,0.3-3.5,0.4c-0.2,0-0.2,0.3,0,0.3c1.2-0.1,2.3-0.2,3.5-0.4
		C253.9,33.7,253.9,33.4,253.7,33.5"/>
	<path class="st5" d="M253.5,31.8c-1,0.1-2,0.3-3.1,0.4c-0.2,0-0.2,0.3,0,0.3c1-0.1,2.1-0.3,3.1-0.4
		C253.7,32.1,253.7,31.8,253.5,31.8"/>
	<path class="st5" d="M253.3,30.4c-0.8,0.2-1.2,0.4-3,0.3c-0.2,0-0.2,0.3,0,0.3c1,0,2-0.1,3-0.3C253.6,30.7,253.5,30.4,253.3,30.4"
		/>
	<path class="st5" d="M253.4,28.5c-1,0.2-2,0.4-3,0.5c-0.2,0-0.2,0.3,0,0.3c1-0.1,2-0.3,3-0.5C253.6,28.7,253.6,28.4,253.4,28.5"/>
	<path class="st5" d="M253.1,26.7c-1,0.1-2,0.3-3,0.4c-0.2,0-0.2,0.3,0,0.3c1-0.1,2-0.2,3-0.4C253.4,27,253.3,26.7,253.1,26.7"/>
	<path class="st5" d="M252.9,24.9c-1,0.2-1.9,0.3-2.9,0.4c-0.2,0-0.2,0.3,0,0.3c1-0.1,1.9-0.2,2.9-0.4
		C253.1,25.2,253.1,24.9,252.9,24.9"/>
	<path class="st5" d="M252.7,23c-1,0.2-2.1,0.4-3.1,0.5h-0.1l0,0c0,0.1,0,0.2,0.1,0.2l0,0c1-0.1,2.1-0.3,3.1-0.5
		C252.9,23.2,252.9,22.9,252.7,23"/>
	<path class="st5" d="M252.6,21c-1,0.1-2,0.3-3,0.4c-0.2,0-0.2,0.3,0,0.3c1-0.1,2-0.3,3-0.4C252.9,21.2,252.8,20.9,252.6,21"/>
	<path class="st6" d="M321.7,51.9L248,58.1c-0.1,0-0.2-0.1-0.2-0.2l-1-12.3c0-0.1,0.1-0.2,0.2-0.2l73.7-6.2c0.1,0,0.2,0.1,0.2,0.2
		l1,12.3C321.9,51.8,321.8,51.9,321.7,51.9"/>
	<polygon class="st4" points="261,57 253.3,57.6 252.2,44.9 259.9,44.3 	"/>
	
		<rect x="262.3" y="44" transform="matrix(-0.9965 8.352891e-002 -8.352891e-002 -0.9965 529.664 78.6243)" class="st4" width="1.7" height="12.7"/>
	<path class="st4" d="M270.5,49.8c0.1,1.2-0.8,2.3-2,2.4c-1.2,0.1-2.3-0.8-2.4-2.1c-0.1-1.2,0.8-2.3,2-2.4
		C269.3,47.6,270.4,48.5,270.5,49.8"/>
	<path class="st7" d="M321.3,39.3l-73.7,6.2c-0.1,0-0.2-0.1-0.2-0.2l-0.8-9.9c0-0.1,0.1-0.2,0.2-0.2l73.7-6.2c0.1,0,0.2,0.1,0.2,0.2
		l0.8,9.9C321.4,39.2,321.4,39.3,321.3,39.3"/>
	<polygon class="st8" points="256.2,37.4 256.6,41.8 258.7,39.6 	"/>
	<polygon class="st8" points="259.2,37.6 259.5,41.1 261.2,39.4 	"/>
	
		<rect x="251" y="34.9" transform="matrix(-0.9965 8.328686e-002 -8.328686e-002 -0.9965 504.837 59.0196)" class="st8" width="0.3" height="10.2"/>
	
		<rect x="252.5" y="34.8" transform="matrix(-0.9965 8.318516e-002 -8.318516e-002 -0.9965 507.8261 58.7301)" class="st8" width="0.3" height="10.2"/>
	<path class="st8" d="M266-78.7l-5.2,1.9l0.1-1.3c0.2-3.8-0.4-8.4-1.5-12l0.2-0.2l4.8-4.2L266-78.7z"/>
	<polygon class="st9" points="296,-80.7 265.6,-79.4 260.6,-76.8 293.6,-78.2 	"/>
	<path class="st10" d="M260.6-77.2c0.9-0.2,1.7-0.8,2.6-1.3c0.8-0.4,1.6-0.9,2.4-1.3c0.1-0.1,0.2,0.3,0.1,0.4
		c-0.8,0.5-1.7,0.9-2.5,1.4c-0.8,0.4-1.6,1-2.4,1.2C260.5-76.7,260.4-77.1,260.6-77.2"/>
	<path class="st10" d="M264.3-93.9c-1.8,1.1-3.5,2.6-5.1,4.2c-0.2,0.2-0.4-0.4-0.2-0.6c1.7-1.7,3.4-3.1,5.2-4.3
		C264.4-94.6,264.5-94,264.3-93.9"/>
	<path class="st11" d="M294.8-95.6l-30.7,1.2l0.5,3.4c0.4,2.7,0.7,5.5,0.8,8.2l0.2,3.4l30.4-1.3v-0.2
		C296.3-85.7,295.8-90.8,294.8-95.6"/>
	<path class="st7" d="M268.7-94.3c-0.1-0.4-0.8-0.4-0.7,0.1c0.9,4.5,1.3,9.1,1,13.7c0,0.4,0.6,0.5,0.7,0.1
		C270-85,269.7-89.7,268.7-94.3"/>
	<path class="st7" d="M291.1-95c-0.1-0.4-0.8-0.3-0.7,0.1c1,4.5,1.4,9.1,1.1,13.7c0,0.4,0.6,0.5,0.7,0.1
		C292.5-85.7,292.1-90.4,291.1-95"/>
	<path class="st2" d="M251.4-58.5l-11.8,3l0.3-1.7c0.8-5.1-0.4-11.2-2.5-16.1l0.5-0.3l11-5.9L251.4-58.5z"/>
	<polygon class="st4" points="318,-63.4 250.4,-59.4 239.3,-55.5 312.5,-59.8 	"/>
	<path class="st3" d="M239.2-56c2-0.4,3.9-1.2,5.8-1.9c1.8-0.6,3.5-1.3,5.3-1.9c0.3-0.1,0.5,0.4,0.2,0.5c-1.9,0.7-3.8,1.4-5.7,2.1
		c-1.8,0.7-3.6,1.4-5.5,1.8C238.9-55.3,238.9-55.9,239.2-56"/>
	<path class="st3" d="M248.8-78.7c-4,1.7-7.9,3.7-11.6,6.1c-0.4,0.2-0.8-0.5-0.4-0.7c3.8-2.4,7.7-4.5,11.8-6.2
		C248.9-79.8,249.2-78.9,248.8-78.7"/>
	<path class="st12" d="M316.3-83.3l-68.1,3.9l0.8,4.5c0.7,3.7,1.1,7.3,1.2,11l0.2,4.6l67.6-4v-0.3C319-70.2,318.4-77,316.3-83.3z"/>
	<path class="st13" d="M315.2,29.4l-62.3,5.2l-1.3-15l62.4-5.2l0.1,0.2C315.9,19.3,316.3,24.5,315.2,29.4"/>
	<polygon class="st3" points="268,33.4 259.2,34.1 258,19.1 266.7,18.4 	"/>
	<path class="st2" d="M250.5,3.8l-11.7-0.7l0.5,1.3c1.6,3.9,1.6,8.7,0.4,12.7l0.5,0.2l11.4,3.2L250.5,3.8z"/>
	<polygon class="st4" points="318.1,-1.7 249.7,4.6 238.5,3.1 311.7,-3.8 	"/>
	<path class="st3" d="M238.4,3.5c1.9,0,3.9,0.4,5.8,0.7c1.8,0.3,3.6,0.5,5.4,0.8c0.3,0,0.4-0.4,0.1-0.4c-1.9-0.3-3.9-0.6-5.8-0.8
		c-1.8-0.3-3.6-0.6-5.5-0.7C238.1,3.1,238.1,3.5,238.4,3.5"/>
	<path class="st3" d="M251.4,19.8c-4.1-0.8-8.1-1.9-12-3.2c-0.4-0.1-0.7,0.5-0.3,0.6c4,1.4,8.1,2.5,12.2,3.3
		C251.7,20.6,251.9,19.9,251.4,19.8"/>
	<path class="st14" d="M319.4,14.8L251,20.5v-3.6c0-2.9-0.2-5.8-0.7-8.7l-0.6-3.6L318-1.7l0.1,0.2C320.1,3.7,320.6,9.3,319.4,14.8"
		/>
	<path class="st11" d="M311.4-2.2l-64.8,5.4c-0.1,0-0.2-0.1-0.2-0.2l-1.3-15.2c0-0.1,0.1-0.2,0.2-0.2l64.8-5.4
		c0.1,0,0.2,0.1,0.2,0.2l1.3,15.2C311.5-2.2,311.5-2.2,311.4-2.2"/>
	<path class="st7" d="M318.1-29.4l-80.2,6.7c-0.1,0-0.2-0.1-0.2-0.2l-0.9-11c0-0.1,0.1-0.2,0.2-0.2l80.1-6.7c0.1,0,0.2,0.1,0.2,0.2
		l0.9,11C318.2-29.5,318.2-29.4,318.1-29.4"/>
	<path class="st6" d="M304.3-39.5l-51.1,4.3l-1.9-22.4l51.1-4.3l0.3,1.2c1.5,6.5,2.1,13.2,1.7,19.9L304.3-39.5z"/>
	<polygon class="st8" points="269,-36.7 258.8,-35.8 257,-57.9 267.1,-58.7 	"/>
	<polygon class="st6" points="266.7,-36.5 261,-36 259.1,-58.1 264.8,-58.6 	"/>
	<g class="st15">
		<g>
			<g>
				<defs>
					<rect id="SVGID_1_" x="251.3" y="-61.7" width="52.3" height="5.7"/>
				</defs>
				<clipPath id="SVGID_2_">
					<use xlink:href="#SVGID_1_"  style="overflow:visible;"/>
				</clipPath>
				<polygon class="st16" points="251.3,-57.4 302.4,-61.7 303.6,-56 251.4,-56.2 				"/>
			</g>
		</g>
	</g>
	<g class="st17">
		<g>
			<g>
				<defs>
					<rect id="SVGID_3_" x="270.9" y="-91.3" width="6.9" height="7.1"/>
				</defs>
				<clipPath id="SVGID_4_">
					<use xlink:href="#SVGID_3_"  style="overflow:visible;"/>
				</clipPath>
				<path class="st18" d="M277.8-88c0.2,1.9-1.2,3.7-3.2,3.8c-1.9,0.2-3.6-1.3-3.8-3.2c-0.2-1.9,1.2-3.7,3.2-3.8
					C276-91.4,277.6-90,277.8-88"/>
			</g>
		</g>
	</g>
	<path class="st13" d="M245.3-29.2c-0.8-0.8-1.6-1.5-2.6-2c-0.4-0.2-0.7,0.4-0.3,0.6c0.8,0.5,1.5,1.1,2.2,1.7
		c-0.6,0.8-1.2,1.6-1.9,2.3c-0.3,0.3,0.2,0.8,0.5,0.4c0.8-0.8,1.5-1.7,2.1-2.6C245.5-28.8,245.5-29,245.3-29.2"/>
	<path class="st13" d="M249.2-29.6c-0.5-0.7-1.4-1.2-2.1-1.7c-0.3-0.3-0.8,0.2-0.4,0.5c0.5,0.4,1.3,0.9,1.8,1.4
		c-0.2,0.3-0.6,0.7-0.9,0.9c-0.3,0.4-0.7,0.7-1,1.1c-0.3,0.3,0.2,0.8,0.5,0.4c0.4-0.4,0.8-0.9,1.2-1.3c0.3-0.3,0.7-0.6,0.9-1.1
		C249.3-29.4,249.3-29.5,249.2-29.6"/>
	<path class="st13" d="M251.1-32.4c-0.3-0.3-0.8,0.2-0.4,0.5c0.2,0.2,0.6,0.8,0.2,0.9c-0.4,0.1-0.2,0.8,0.2,0.6
		c0.4-0.1,0.6-0.5,0.6-1C251.7-31.8,251.4-32.2,251.1-32.4"/>
	<path class="st13" d="M255-31c-0.1-0.1-0.3-0.2-0.4-0.1c-0.6-0.2-1.3-0.1-1.7,0.5c-0.4,0.5-0.2,1.3,0.2,1.7
		c0.5,0.5,1.3,0.4,1.8-0.1C255.5-29.5,255.4-30.4,255-31 M254.5-29.5c-0.2,0.3-0.6,0.3-0.9,0c-0.5-0.5,0.1-1.3,0.7-1
		c0.1,0,0.1,0,0.2,0C254.7-30.2,254.7-29.8,254.5-29.5"/>
	
		<rect x="301.3" y="-17" transform="matrix(-0.9965 8.367711e-002 -8.367711e-002 -0.9965 601.6555 -43.5241)" class="st13" width="0.8" height="15.6"/>
	
		<rect x="304.4" y="-17.2" transform="matrix(-0.9965 8.373623e-002 -8.373623e-002 -0.9965 607.838 -44.1957)" class="st13" width="0.8" height="15.6"/>
	<g class="st19">
		<g>
			<g>
				<defs>
					<rect id="SVGID_5_" x="251.6" y="15.2" width="63.4" height="5.6"/>
				</defs>
				<clipPath id="SVGID_6_">
					<use xlink:href="#SVGID_5_"  style="overflow:visible;"/>
				</clipPath>
				<path class="st20" d="M251.6,20.4l62.7-5.3c0,0,0.5,1.5,0.8,2.5l-63.3,3.1L251.6,20.4z"/>
			</g>
		</g>
	</g>
	<path class="st4" d="M314.9-17.9l-80.1,6.7c-0.1,0-0.2-0.1-0.2-0.2l-0.9-11c0-0.1,0.1-0.2,0.2-0.2l80-6.7c0.1,0,0.2,0.1,0.2,0.2
		l0.9,11C315-18,315-18,314.9-17.9"/>
	
		<rect x="243.4" y="-20" transform="matrix(-0.9965 8.337452e-002 -8.337452e-002 -0.9965 485.7738 -55.5019)" class="st13" width="1.2" height="4.7"/>
	
		<rect x="247.2" y="-20.4" transform="matrix(-0.9965 8.337765e-002 -8.337765e-002 -0.9965 493.3136 -56.6159)" class="st13" width="1.2" height="4.7"/>
	<path class="st8" d="M318.4-29.7l-80.3,6.8c-0.2,0-0.4-0.2-0.4-0.4l80.4-7.5L318.4-29.7z"/>
	<path class="st13" d="M318-30.1l-80.3,6.8c-0.2,0-0.4-0.2-0.4-0.4l80.4-7.5L318-30.1z"/>
	<path class="st5" d="M247.8-55.5c0,0,3.6,14,1.3,20.1l4.1,0.2l-1.9-22.3L247.8-55.5z"/>
	<path class="st2" d="M309.3,17.2c0-0.1,0.1-0.3,0.2-0.4c0.8-1.1,1.8-1.1,2.8-1.9c0.5-0.4,0.3-1.9,1.5-1.5c0.4,0.1,1.4,0.7,2.3,1
		c1.3,0.5,3.3,0.3,4.8-0.2c2-0.6,4.2-1.3,6.1-2.2c2-0.9,4-2,5.9-3.1c1.6-0.9,4.1-2,5.3-3.4c2-2.4-0.3-8.2-0.6-11.2
		c-0.3-3.1,0-12.2,4.2-12.5c6.9-0.4,7,6.1,7.3,11.3c0.2,3.3,0.2,6.6-0.1,9.9c-0.4,4.6-3.4,7.2-7.3,9.4c-4.2,2.3-8.4,4.5-13,5.9
		c-2.2,0.7-4.4,0.9-6.7,1.2c-2.2,0.4-2,1.3-3.8,2.2c-1,0.5-2,1.1-3.1,1.4c-2,0.5-3.6-0.9-5.1-2c-0.4-0.3-0.6-0.4-0.8-0.8
		c-0.3-0.6-0.2-1.3-0.1-2C309.1,18,309.2,17.6,309.3,17.2"/>
	<path class="st3" d="M349-4.9c-3.9,0.8-7.8,1.5-11.6,2.3c0.2,0-4.5-17.4-4.7-18.4c-0.9-4-1.9-8.1-1.1-12.1c1.7-8.5,5.8-10.7,11-1.7
		c4.9,8.5,12.6,18.6,11.1,28.3c0,0.2-0.1,0.4-0.2,0.6c-0.2,0.2-0.5,0.3-0.8,0.4L349-4.9z"/>
	<path class="st11" d="M445.4-34.2c5.6,3.4,11.9,5.8,18.4,6.8c1.2-5.3,2.4-10.6,3.7-16c0.6-2.3,1.1-4.6,2.3-6.7
		c0.6-1.1,2.8-3.1,2.1-4.6c-1.2-2.5-6.5,0.3-8,1.1c-3.9,2.2-7.6,5.2-10.7,8.5C452.4-44.2,444.7-34.6,445.4-34.2"/>
	<path class="st2" d="M499.6,91.3l0.4,21.8c-0.1,6.1,0.4,12.1,0.8,18.1c0.3,5.6-0.8,11.4,1.9,16.6c0.8,1.6,2.6,2.8,4,0.9
		c1-1.5,0.6-4,0.8-5.6c1.9-12.7,5.5-25,7.3-37.7C516.6,92.1,511.4,92.5,499.6,91.3"/>
	<polygon class="st4" points="500.8,144.1 499.4,147.7 506.3,153.8 512.7,154.1 514.7,150.7 506.2,143.3 	"/>
	<path class="st2" d="M484.1,91.5l-4,21.5c-1.4,9.6-4.5,18.9-5.9,28.5c-0.3,2.2-0.2,4.6-1.1,6.7c-0.9,2-2.7,2.1-4.2,0.7
		c-2.1-1.9-1.1-5.2-1.1-7.7c0.3-16.8-1.1-33.5-1.4-50.3c0-0.2,0-0.5,0.2-0.6c0.1-0.1,0.3-0.1,0.5-0.1
		C468.8,90.3,484.1,92,484.1,91.5"/>
	<polygon class="st4" points="467.8,145 465.6,148.2 471,155.7 477.1,157.4 479.8,154.6 473.2,145.5 	"/>
	<polygon class="st4" points="522.1,105.2 519.1,74 517.7,53.7 512.9,37.1 486.8,33.1 454.6,38.6 453,44.9 459.2,102.8 490.3,105.2 
		489.9,69.1 494.7,91.5 494.5,105.2 	"/>
	<path class="st21" d="M461.4-23.8c0,1.1-0.1,2.1-0.1,3.2c-0.4,21.4,0.8,43.1,0.9,64.7c11.1-1.7,22.2-2.7,33.4-2.9
		c2.6,0,14.4,1.8,16,0.2c2.2-2.1-0.2-1.7-0.1-4.4c0.2-3.5-1.5-6.4-0.8-10.6c0.8-4.9,2.3-9.8,3.1-14.7c1.7-9.9,2.8-19.9,3.1-29.9
		c0.3-8.9,0-18.1-3.8-26.1c-9.4-19.8-39.8-19.4-48.1,1.2C462.5-37.1,461.7-30.4,461.4-23.8"/>
	<path class="st11" d="M495.7-51.6l-8.3,15c0.4,15.2,0.9,30.4,1.3,45.6c0.2,7,0.4,14,0.6,21c0.1,2.4,0.1,4.9,0.2,7.3
		c0,1.1-0.3,2.9,0.4,3.8c1.4,1.9,6.3,1.3,8.4,1.5c3.4,0.3,6.8,0.5,9.9,1.7c2.1,0.8,4.1,1.9,6.3,2.2c0.5,0.1,1.1,0.1,1.4-0.2
		c0.4-0.4,0.5-1,0.6-1.5c0.8-10.4,0.8-21.2,1.4-31.7c0.5-8.3,1.6-16.6,1.2-24.9c-0.4-8.5-1.7-17-3.4-25.4c-1-5-2.1-10-4.8-14.3
		c-3.1-4.8-7.5-6.8-12.9-7.8c-1.9-0.4-9-3.1-7.8,1.3C490.8-56,494.2-53.3,495.7-51.6"/>
	<path class="st11" d="M477.7-50.2l8.3,15c-0.2,0-1,36.9-1.1,39.3c-0.3,9.5-0.5,18.9-0.8,28.4c-0.1,2.6,0.3,5.7-0.2,8.3
		c-0.7,3.6-4.5,2.9-7.8,3.2c-7.1,0.6-14.5,1.8-21.6,1.5c-2-0.1,0.6-42.8,0.6-46.8c0-14.3-3-30.3,4.3-43.3c2.1-3.8,5.9-9.9,10-11.7
		c3.8-1.7,9.3-2,13.5-3l0.2,2.7L477.7-50.2z"/>
	<path class="st4" d="M495.6-86.6c1.3,2.3,1.9,4.9,2,7.5c0,0.7,0.1,1.5,0.6,1.9c0.6,0.4,0.1,1.4,0.5,0.8c0.5-0.6,2-2.6,2.1-3.4
		c0.2-1.7,0.2-3.5,0-5.2c-0.1-1.5-0.5-3.1-1.4-4.2c-0.6-0.7-1.4-1.2-2.1-1.6c-1.1-0.7-2.3-1.4-3.6-1.6c-2.2-0.4-3.6,0.4-1.6,1.9
		C493.6-89.4,494.7-88.1,495.6-86.6"/>
	<path class="st2" d="M481.8-56.9c0,1.1-0.2,2.2,0.7,3c0.5,0.4,1.1,0.6,1.7,0.7c1.5,0.2,3.1,0.1,4.6-0.3c0.6-0.2,1.2-0.4,1.7-0.9
		s0.6-1,0.6-1.7c0-0.8,0.2-1.6,0.3-2.4c0.2-1.8,0.3-3.6,0.4-5.4c2.7-0.5,5.8-1.3,6.7-4.1c0.3-0.9,0.3-1.8,0.3-2.8
		c0-3.9,0.1-7.7,0.1-11.6c0-1.3,0-2.7-0.4-3.9c-0.8-2.2-2.8-3.5-4.8-4.3c-5.1-2.1-11-2-15.7,1c-1.2,0.8-2.4,1.8-3.2,3.2
		c-1.1,2.1-1,4.7-0.8,7.2c0.2,2.3,0.3,4.5,0.5,6.8c0.2,2.6,0.6,5.6,2.6,6.9c1.1,0.7,2.4,0.9,3.4,1.8c1.6,1.6,0.8,4.1,1.3,6.1
		C481.8-57.5,481.8-57.2,481.8-56.9"/>
	<path class="st4" d="M499.7-72.4c0-0.7-0.4-2.8-1.4-1.5c-0.3,0.3-0.3,0.8-0.4,1.3c0,0.5,0,0.9-0.1,1.4c-0.3,1-1.4,1.4-2.4,1.4
		c-0.4,0-0.8-0.1-1.1-0.3c-0.3-0.2-0.6-0.5-0.9-0.8c-0.6-0.7-1.3-1.4-1.9-2.2c-1.1-1.2-3.2-0.7-4.7-0.5c-1.7,0.2-3.3,0.7-4.7,1.8
		c-0.1,0.1-0.3,0.2-0.4,0.3c-0.3,0.3-0.7,0.6-1,0.8c-1.3,0.6-2.9,0-3.8-1.2c-0.4-0.5-0.8-1.2-1.4-1.3c-0.5-0.1-1,0.3-1.3,0.8
		s-0.3,1-0.4,1.6c-0.1,2,0.1,4,1,5.8c1.9,3.8,5.5,4.3,9.1,4.2c1.4,0,2.9-0.1,4.3-0.1c2.6-0.1,5.4-0.2,7.6-1.7c2-1.3,3.1-3.6,3.6-6
		C499.8-69.9,499.8-71.1,499.7-72.4 M490.1-67c-1.4,0.9-2.9,1-4.4,0.5c-0.7-0.2-0.4-1.3,0.3-1.1c1.3,0.4,2.5,0.4,3.6-0.4
		C490.2-68.3,490.7-67.4,490.1-67"/>
	<path class="st4" d="M500.3-93.3c0.3-0.9,0.4-1.9,0.6-2.8c-0.9,0.3-1.9,0.4-2.8,0.2c0-0.6,0-1.1,0-1.7c0-0.5-6.2-0.8-6.7-0.8
		c-4.7-0.4-9.1-0.8-13.4,1.8c-3.7,2.2-6,5.4-6.6,9.6c-0.5,4,0.8,9.3,3.1,12.7c0-1.1-0.6-3.6-0.4-4.6s0.5-2,1-2.9
		c1-1.8,2.5-3.3,4.2-4.4c2.8-1.7,6-2.7,9.2-3.1c3-0.4,6.6-0.8,9.5,0c1.4,0.4,1.6,0.7,2.5-0.7c0.1-0.2,1.3-3.2,1.2-3.2
		C501.3-93.2,500.8-93.3,500.3-93.3"/>
	<path class="st3" d="M592.7-21.8L486.8-11.3L380.9-21.8c-3-0.3-5.5,2.2-5.3,5.2L380,88.1c0.1,2.4,2,4.3,4.4,4.6
		c17.4,1.8,85.4,8.6,93,9.4c0.4,0,0.7,0.3,0.9,0.6c0.5,1,2.3,3,8.5,3s8-2,8.5-3c0.2-0.3,0.5-0.6,0.9-0.6c7.6-0.9,75.6-7.7,93-9.4
		c2.4-0.2,4.2-2.2,4.4-4.6L598-16.6C598.2-19.6,595.6-22,592.7-21.8"/>
	<path class="st7" d="M592.7-23.5L486.8-13L380.9-23.5c-3-0.3-5.5,2.2-5.3,5.2L380,86.4c0.1,2.4,2,4.3,4.4,4.6
		c17.4,1.8,85.4,8.6,93,9.4c0.4,0,0.7,0.3,0.9,0.6c0.5,1,2.3,3,8.5,3s8-2,8.5-3c0.2-0.3,0.5-0.6,0.9-0.6c7.6-0.9,75.6-7.7,93-9.4
		c2.4-0.2,4.2-2.2,4.4-4.6L598-18.3C598.2-21.3,595.6-23.8,592.7-23.5"/>
	<path class="st22" d="M487.2-13.7c-48.8-32.6-97.9-17.8-97.9-17.8V81.7c68-13.8,97.5,14.8,97.5,14.8s29.6-28.6,97.5-14.8V-31.6
		C584.3-31.6,536-46.3,487.2-13.7"/>
	<path class="st23" d="M389.3-31.6c0,0-2.2,8.6-9.8,13.8l4.9,108.2c0,0,4.9-3.8,4.9-8.7V-31.6L389.3-31.6z"/>
	<path class="st23" d="M584.3-31.6c0,0,2.2,8.6,9.8,13.8l-4.9,108.2c0,0-4.9-3.8-4.9-8.7V-31.6z"/>
	<path class="st24" d="M384.4,90.4c0,0,67.8-15.5,98.1,11.8h4.3v-5.8c0,0-30.6-29.1-97.5-14.8L384.4,90.4z"/>
	<path class="st24" d="M589.2,90.4c0,0-67.8-15.5-98.1,11.8h-4.3v-5.8c0,0,30.6-29.1,97.5-14.8L589.2,90.4z"/>
	<path class="st25" d="M436.3-38.5c-5.9-0.6-11.7-0.8-17.3-0.9c-2.6,0-23.6,0.8-23.6,1.5v32v82c0-0.7,21.1-1.5,23.7-1.5
		c18.1,0.2,38.5,3.5,54.5,12.4c2.7,1.5,13.5,7.3,13.5,11.4v-111c0-2.3-0.8-4.4-2.4-6.1C472.6-31.7,454.2-36.7,436.3-38.5"/>
	<path class="st21" d="M538-38.5c5.9-0.6,11.7-0.8,17.3-0.9c2.6,0,23.6,0.8,23.6,1.5v32v82c0-0.7-21.1-1.5-23.7-1.5
		c-18.1,0.2-38.5,3.5-54.5,12.4c-2.7,1.5-13.5,7.3-13.5,11.4v-111c0-2.3,0.8-4.4,2.4-6.1C501.7-31.7,520-36.7,538-38.5"/>
	<g class="st26">
		<g>
			<g>
				<defs>
					<rect id="SVGID_7_" x="487.1" y="-39.4" width="91.7" height="137.7"/>
				</defs>
				<clipPath id="SVGID_8_">
					<use xlink:href="#SVGID_7_"  style="overflow:visible;"/>
				</clipPath>
				<path class="st27" d="M538-38.5c5.9-0.6,11.7-0.8,17.3-0.9c2.6,0,23.6,0.8,23.6,1.5v32v82c0-0.7-21.1-1.5-23.7-1.5
					c-18.1,0.2-38.5,3.5-54.5,12.4c-2.7,1.5-13.5,7.3-13.5,11.4v-111c0-2.3,0.8-4.4,2.4-6.1C501.7-31.7,520-36.7,538-38.5"/>
			</g>
		</g>
	</g>
	<g class="st26">
		<g>
			<g>
				<defs>
					<rect id="SVGID_9_" x="487.1" y="-7.1" width="57.1" height="105.5"/>
				</defs>
				<clipPath id="SVGID_10_">
					<use xlink:href="#SVGID_9_"  style="overflow:visible;"/>
				</clipPath>
				<path class="st28" d="M487.1-7.1V98.4c0-4.1,10.9-9.9,13.5-11.4c12.8-7.1,28.5-10.6,43.5-11.9l0,0C497.8,55,488.7,5.7,487.1-7.1
					"/>
			</g>
		</g>
	</g>
	<path class="st2" d="M674.3-11.5c-0.2-0.1-0.3-0.1-0.5-0.2c-1.5-0.2-2.4,0.6-3.9,0.8c-0.7,0.1-1.8-1.2-2.4,0.1
		c-0.2,0.5-0.6,1.7-1,2.7c-0.7,1.5-2.4,3-4,3.9c-6.2,3.7-13.3,5.5-20.3,7.1C641.8,3,641.4,3.1,641,3c-0.7-0.2-1.1-0.9-1.5-1.6
		c-1.6-3-3.5-5.9-5.6-8.6c-1.9-2.4-4.1-4.7-6.8-6c-2.7-1.3-6.2-1.6-8.8,0.1c-1.9,1.2-3.2,3.4-3.4,5.7c-0.3,5.7,7.2,9.3,11.1,12.2
		c3.7,2.7,7.6,5.2,11.6,7.4c0.5,0.3,1,0.5,1.6,0.6c0.6,0.1,1.2-0.1,1.8-0.3c7.4-2.5,14.5-5.7,21.6-9c1.9-0.9,3.2-2.7,5-3.6
		c1.2-0.5,2.4-0.1,3.6-0.4c1.2-0.3,2.7-0.9,3.7-1.6c2-1.3,2.1-3.8,2.4-5.9c0.1-0.5,0.1-0.9,0-1.4c-0.3-0.8-0.9-1.2-1.6-1.7
		C675.2-11.1,674.7-11.3,674.3-11.5"/>
	<path class="st13" d="M625.4,2.8c3.7-2.7,7.5-5.3,11.2-8c-0.2,0.2-11.1-17.6-11.8-18.7c-2.6-4-5.3-8.1-9.3-10.6
		c-8.6-5.4-19.4,2.4-16.1,12.3C603-11.4,611-1.1,620.3,5.3c0.2,0.1,0.4,0.3,0.7,0.3c0.3,0,0.6-0.2,0.9-0.4
		C623,4.5,624.2,3.6,625.4,2.8"/>
	<polygon class="st2" points="616.8,141.4 616.7,152.9 623.5,153 623.7,140.2 	"/>
	<path class="st4" d="M622.9,151.2l-5.9,2l-1.8,1.9l0.3,4.5l16,1.2c1.4-2,0.5-4.6-1.8-5.4l-0.7-0.3L622.9,151.2z"/>
	<polygon class="st2" points="567.7,130.4 563.2,140.9 569.5,143.6 574.5,131.9 	"/>
	<path class="st4" d="M569.3,143.8c-0.2-0.2-0.5-0.5-0.8-0.7c-0.8-0.6-6.8-3.8-7.4-2.3c-0.1,0.2-0.1,0.5,0,0.7
		c0.5,4.2,1.5,8.3,2.9,12.2c0.6,1.7,1.5,3.6,3.3,4c0.8,0.2,1.6,0,2.3-0.1c1.1-0.3,2.3-0.6,3.3-1c0.4-0.2,0.8-0.3,1-0.7
		c0.4-0.7-0.3-1.6-1.1-2s-1.7-0.7-2-1.5c-0.2-0.3-0.2-0.7-0.2-1.1C570.6,148.5,571.1,145.8,569.3,143.8"/>
	<path class="st5" d="M610.5,88.1c-2.2,10.2-8.6,17.6-15.5,25.1c-7.8,8.6-15.2,17.6-22,27c-3-1.2-5.9-2.5-8.9-3.7
		c2.5-14.4,9.3-27.6,14.6-41.2c3.7-9.4,6.6-19.4,6.8-29.6c0.1-5.1-1.1-9.7-1.8-14.7c-0.8-6.1-0.9-12.4-1.6-18.5
		c-0.2-2.1-0.4-4.5,1.2-5.8c0.7-0.6,1.6-0.8,2.5-1C619.5,19.1,614.8,68.6,610.5,88.1"/>
	<path class="st5" d="M583.1,34.4c0-6.2,0.7-12.2,1.9-16.7c9.6-0.5,20.4,0.5,29.9,2.5c9.3,1.9,15,3.9,15.1,13.9
		c0.1,18.5,7.3,34.2,10.5,51.9c1.8,10.3-1.3,19.5-4.8,29.1c-4,10.9-7.3,22.1-10.1,33.4c-3.2,0-6.4,0-9.6-0.1
		c-3.2-14.2-1.9-29-2.1-43.6c-0.2-10.1-1.2-20.5-4.9-30c-4.1-10.5-10-6.3-16.8-12.4C585.5,56.5,583.1,45.2,583.1,34.4"/>
	<path class="st29" d="M594-36.6c-1.1,0.8-2,1.8-2.9,2.8c-0.8,0.9-1.6,1.8-2.5,2.6c-2.8,3-4.3,7.5-5.5,11.4
		c-6.4,20.4-8.7,48.4-4.6,69.8c15.8,1.4,34.1-2.6,49.9-4.8c1.5-0.2,3.3-0.6,4.1-1.9c0.5-0.8,0.5-1.8,0.5-2.7
		c0-13.5-2.9-28.1-5.5-41.5c-1.1-5.6-2.5-11.2-4.3-16.7c-1.9-5.8-4-12-8.5-16.4c-4.7-4.7-13.8-7-19.8-3.3
		C594.6-37.1,594.3-36.8,594-36.6"/>
	<path class="st2" d="M595.7-33.8c-0.3-1.8-0.6-3.7-0.9-5.5c-0.4-0.2-0.7-0.4-1.1-0.6c-6.6-4.2-17.7-26.8-0.1-31.9
		c16-4.6,15.1,17.4,12,26.5c-0.5,1.6-1.2,3-2.3,4.3c-0.7,0.9-0.9,0.7-0.8,1.7c0.1,1,1.1,2.1,1.3,3.1c0.2,1.1,0.1,2.3-0.5,3.3
		c-0.4,0.6-1,1-1.6,1.3c-1,0.5-2.1,0.8-3.2,0.6C597.4-31.1,595.9-32.4,595.7-33.8"/>
	<path class="st4" d="M609.5-53.6c-1.3,4.5-2.5,6.2-4.1,8.3c-3.3,4.3-0.6-10.8-1.9-16.1c-0.1-0.4-0.2-0.9,0-1.2
		c0.2-0.3,0.6-0.5,1-0.5C611.2-64.5,611.2-58.6,609.5-53.6"/>
	<path class="st4" d="M591.8-45.4c-1.1,1.5-3.4,1.1-5.1,0.3c-6.8-3.4-10.9-11.7-9.3-19.2c1.3-6.3,9.2-11,10.8-3.2
		c0.6,2.8-1.1,6.6-0.7,9.6C587.9-53.5,590-49.4,591.8-45.4"/>
	<path class="st4" d="M609.4-77.6c0.8,0.3,1.5,0.6,2.4,0.9c1.7,0.7,2.9,0.9,4.7-0.1c0.5-0.3,3.9-3.5,3.1-4.1
		c5.4,4.4,1,10.8-1.1,15.3c-1.4,3-1.6,7.3-4.7,9.3c-3.3,2.2-5.6-0.6-8.7-1.8c-2.7-1.1-5.6-1.7-8.3-2.7c-4.5-1.6-11.3-4.5-9.8-10.5
		c1.8-7,8.9-8.8,15.3-8.2C605-79.2,607.1-78.4,609.4-77.6"/>
	<path class="st3" d="M681,57.6l-16.6-24.9V-52c0-1.5,1.9-2.1,2.8-0.8L681-32V57.6L681,57.6z"/>
	<polygon class="st21" points="680.2,-31.2 666,-52.4 660.1,-51.1 677.2,-29.8 677.2,58.3 680.2,57.6 	"/>
	<polygon class="st21" points="613.1,-37.6 623.3,-41.3 677.2,-29.8 677.2,55.5 613.1,44 	"/>
	<path class="st3" d="M672.7,60.2l-62.9-8.7c-1.4-0.3-2.4-1.5-2.4-2.9V-35c0-1.9,1.7-3.3,3.6-2.9l61.7,8.5V60.2L672.7,60.2z"/>
	<path class="st7" d="M681-32.1c-0.2,0.6-1.7,1.6-3.8,2.3c-2.2,0.7-4.2,0.9-4.5,0.3l0,0v89.4c0,0.1,0,0.1,0,0.2l0,0l0,0
		c0.3,0.6,2.2,0.4,4.5-0.3c2.3-0.8,4-1.9,3.8-2.5V-32.1z"/>
	<polygon class="st22" points="660.1,-51.1 660.1,-33.4 677.2,-29.8 	"/>
	<polygon class="st24" points="677.2,-29.8 628.1,-42.6 628.1,-40.3 	"/>
	<polygon class="st11" points="614.8,34.5 666.6,41.7 666.6,53.3 614.8,46.1 	"/>
	<g class="st30">
		<g>
			<g>
				<defs>
					<rect id="SVGID_11_" x="609.8" y="-29.4" width="62.9" height="89.7"/>
				</defs>
				<clipPath id="SVGID_12_">
					<use xlink:href="#SVGID_11_"  style="overflow:visible;"/>
				</clipPath>
				<path class="st31" d="M609.8,51.5l62.9,8.7v-89.7C672.7-29.4,664.4,38.6,609.8,51.5"/>
			</g>
		</g>
	</g>
	<path class="st2" d="M646.7,25.7c-0.1-0.1-0.2-0.3-0.4-0.3c-1.3-0.8-2.5-0.4-3.9-0.8c-0.7-0.2-1.2-1.8-2.2-0.9
		c-0.4,0.4-1.2,1.3-2,2.1c-1.2,1.1-3.4,1.8-5.2,2c-7.2,0.9-14.4-0.2-21.5-1.6c-0.4-0.1-0.8-0.2-1.2-0.4c-0.6-0.5-0.7-1.3-0.7-2
		c-0.3-3.4-0.9-6.8-1.8-10.1c-0.8-2.9-1.9-5.9-3.9-8.2s-5-3.9-8.1-3.5c-2.3,0.3-4.3,1.8-5.3,3.9c-2.5,5.1,2.9,11.3,5.3,15.6
		c2.3,4,4.9,7.8,7.7,11.4c0.3,0.4,0.7,0.9,1.2,1.2s1.2,0.3,1.8,0.4c7.8,0.6,15.5,0.6,23.4,0.4c2.1-0.1,4-1.2,6-1.3
		c1.3,0,2.3,0.9,3.5,1.1c1.2,0.2,2.8,0.3,4,0c2.3-0.4,3.4-2.6,4.6-4.5c0.3-0.5,0.5-0.8,0.5-1.3c0.1-0.8-0.4-1.5-0.8-2.2
		C647.3,26.4,647,26,646.7,25.7"/>
	<path class="st6" d="M596.1,19.3c4.5-1,9-1.9,13.4-2.9c-0.3,0.1-3.1-20.6-3.3-21.8c-0.8-4.7-1.7-9.5-4.4-13.4
		c-5.7-8.3-18.8-5.6-19.7,4.9c-1,11.3,2.2,24,8.2,33.6c0.1,0.2,0.3,0.4,0.5,0.5c0.3,0.2,0.7,0.1,1,0
		C593.3,19.9,594.7,19.6,596.1,19.3"/>
	<path class="st4" d="M435.7,138.4c-0.6-4.8-3-8.7-7.5-10.8c-3.6-1.7-7.7-2.1-11.7-2.6c-8.9-1.1-17.3-2.3-26.3-1.9
		c-7.2,0.3-11.6,6.4-14.9,12.4c-2.1,3.8-1.5,5.6,1.1,8.8c2.5,2.9,5.4,5.4,8.8,7.3c6.6,3.7,16.7,2.8,23.9,2c6.8-0.8,13.5-2.8,19.6-6
		C432.7,145.5,436.3,143.1,435.7,138.4"/>
	<path class="st4" d="M390.9,151.5c-1.2,2.8-2.2,5.6-3.1,8.5c-0.5,1.5-0.9,3.1-0.8,4.7c0.1,3.7,4.3,6.5,7,3c1.2-1.5,2.1-3.2,2.8-5
		c1-2.7-1.1-1.1-2.9-1.9c-2.1-0.9-2-1.7-1.1-3.6c1.1-2.5,2.5-4.1,2.3-6.9c0-0.8-0.3-1.7-1-2c-0.6-0.2-1.2,0-1.6,0.4s-0.7,1-0.9,1.5
		C391.3,150.6,391.1,151.1,390.9,151.5"/>
	<path class="st32" d="M404.8,63.4c2.4,0.2,4.8,0.5,7.2,0.7c0.4-2.1,0.6-4.3,0.7-6.5c2.1-0.4,4.6-1.1,5.3-3.3
		c0.2-0.7,0.2-1.5,0.2-2.2c0-3.1,0.1-6.2,0.1-9.4c0-1.1,0-2.2-0.3-3.2c-0.6-1.8-2.2-2.8-3.8-3.5c-4-1.7-8.7-1.6-12.5,0.8
		c-1,0.6-1.9,1.5-2.5,2.6c-0.9,1.7-0.8,3.8-0.6,5.8c0.1,1.8,0.2,3.7,0.4,5.5c0.1,2.1,0.4,4.5,2,5.6c0.8,0.6,1.9,0.7,2.7,1.5
		C404.9,59.1,404.3,61.5,404.8,63.4"/>
	<path class="st4" d="M414.7,39.4c0.1,0.2,0.2,0.3,0.3,0.5c0.4,1,0.1,2.1,0.5,3c0.5,1.5,2.4,2.4,2.7,4c0.2,1.3-0.6,2.6-0.7,3.9
		c-0.1,1.5,0.9,2.8,0.8,4.2c-0.1,1.2-0.9,3-1.6,4c0.2-0.3,2.3-0.2,2.8-0.6c0.8-0.5,0.9-0.8,1.1-1.7s0-1.7,0.4-2.6
		c0.4-1.1,1.4-1.9,1.7-3c0.4-1.6-0.4-3.2-0.4-4.8c0.1-2.5,2.1-4.8,1.3-7.2c-0.5-1.4-1.8-2.2-2.6-3.4c-0.6-0.9-0.8-2-1.2-3.1
		c-0.4-1-1.1-2-2.2-2.3c-0.6-0.2-1.2-0.1-1.8-0.2c-1-0.2-1.9-0.9-2.9-1.2c-1.4-0.5-3.9,1-4.8,2.3c-0.8,1.2-0.4,2.2,0.5,3.3
		C410.1,36.3,413.5,37.4,414.7,39.4"/>
	<path class="st4" d="M394.2,32.6c-0.8,0.6-1.9,1.1-2.7,1.9c-1.5,1.5-1.8,3.8-1.8,5.9c0,1.9-0.8,3.5-0.6,5.5
		c0.2,1.3,0.7,2.6,1.8,3.4c1.3,0.9,3.4,1.1,4,2.6c0.7,1.6-1,3.8,0.1,5.2c0.6,0.8,1.7,0.9,2.5,1.4c0.9,0.6,1.4,1.6,2,2.6
		c0.6,0.9,1.4,1.9,2.5,1.9c0-1.7,0-3-0.7-4.5c-0.4-0.9-1.7-2.5-0.8-3.5c0.6-0.8,2-1.1,2-2.1c0-0.5-0.3-0.9-0.6-1.2
		c-1-1.5-1.2-3.5-0.5-5.2c0.7-1.7,2-3,3.6-3.9c1.9-1,1.6-1.4,2.1-3.2c0.5-1.7,1.4-2.1,2.9-2.7c1.3-0.6,1.8-0.9,2.2-2.2
		c0.3-0.9,0.8-2.1,0.2-3.1c-0.4-0.8-1.2-1.4-1.9-1.9c-1.6-1.1-3.3-2.3-5.2-2.2c-1.1,0.1-2.1,0.6-3.1,0.7c-0.7,0.1-1.4-0.1-2.1-0.1
		c-1.2,0-2.5,0.4-3.5,1.1c-1,0.7-0.9,1.5-1.5,2.6C395,31.9,394.6,32.3,394.2,32.6"/>
	<path class="st4" d="M398.4,25.7c0.2-1.2,0-2.7-1.1-3c-0.6-0.2-1.3,0-1.9-0.1c-1.3-0.2-1.8-1.9-2.6-3c-0.1-0.2-0.2-0.3-0.4-0.4
		c-0.3-0.1-0.6,0-0.9,0c-1.3,0.2-2.4-1.1-3.6-1.6c-1.6-0.6-3.5,0.4-3.9,2c-0.2,0.7-0.1,1.4-0.3,2c-0.7,2.7-4.6,3.9-4.6,6.7
		c0,1.9,1.8,3.6,1.1,5.4c-0.4,1.1-1.8,1.9-1.7,3.1c0.1,0.8,0.9,1.3,1.7,1.2c0.8,0,1.5-0.5,2-1c0.9-0.8,1.6-1.9,2.4-2.7
		c0.9-0.9,2-1.6,3.2-1.4c1.2,0.1,2.3,1,3.4,0.8c0.9-0.2,1.6-1,2.5-1.3c0.9-0.2,1.8,0.1,2.6,0.1c0.9,0,2-0.4,2-1.3
		c0-0.2-0.1-0.4,0-0.6c0.2-0.6,1.2-0.6,1.3-1.1c-0.5-0.7-1.1-0.4-1.5-1.4C398.1,27.4,398.2,26.5,398.4,25.7"/>
	<path class="st21" d="M411.4,61.1c3.4-0.4,6.8-1.1,9.6,0.2c2.4,1,2.4,4.1,2.9,6.3c1.8,7.6,3.1,15.2,4.1,22.9
		c0.5,3.7,1.4,7.6,1.3,11.3c0,3-0.8,5.9-0.5,8.9c0.2,2.3,1.2,4.9,3.3,5.8c1.1,0.5,2.3,0.5,3.4,1s2,1.7,1.5,2.8
		c-0.3,0.5-0.8,0.8-1.3,1.1c-2.7,1.5-5.3,3-8,4.5c-2,1.1-4.1,2.3-6.3,3.1c-3.1,1.1-6.4,1.5-9.7,1.7c-8.5,0.4-17.1-0.5-25.3-2.8
		c-4.4-1.2-8.7-3.4-7.6-8.4c1.1-5.2,3.2-10.3,5.5-15c2.8-5.7,3.6-12.6,5.6-18.6c2-6.1,4.1-12.2,6.3-18.2c0,0,0,0,0-0.1
		c0.8-2.2,1.1-4.4,2.8-6.2c2.4-2.5,3.5-0.5,6.2,0C407.1,61.6,409.2,61.3,411.4,61.1"/>
	<path class="st32" d="M419.6,154.6c0.8,0,1.5,0.1,2.3,0.1c0.8,0,1.8,0.1,2.4-0.5c0.8-0.7,0.7-2,0.1-2.8s-1.6-1.2-2.6-1.6
		c-2.3-0.8-4.8-1-7.3-1.1c-0.2,0-0.5,0-0.7,0.1c-0.4,0.2-0.6,0.6-0.8,1C411.6,154.1,416.7,154.4,419.6,154.6"/>
	<path class="st32" d="M390.1,161.8c0,0.3-0.1,0.7,0.1,1c0.1,0.2,0.3,0.4,0.5,0.5c1.6,1,3.7-0.1,4.9-1.5c1.2-1.4,2-3.2,3.6-4.3
		c3.5-2.4,0.3-6.9-3.4-5.9C391.5,152.8,390.6,158,390.1,161.8"/>
	<path class="st4" d="M437.8,138.8c3.1-2.2,6.1-4.8,7.2-8.6c1.1-3.8-0.5-9.1-4.4-11.3c-4.8-2.7-9.5,0.6-13,3.7
		c-7,6.3-14.7,11.9-22.2,17.7c-2.5,2-11.3,9.1-11.3,9.1c-0.2,1,4.5,10.2,5.7,9.8C413.6,155.7,426.9,146.8,437.8,138.8"/>
	<path class="st4" d="M369.1,143.2c-3-1.5-6-3.2-7.2-6.7c-1.2-3.5,0.2-9.3,3.9-12.5c4.5-3.9,9.1-1.9,12.5,0.3
		c6.9,4.5,14.4,8.1,21.7,11.9c2.5,1.3,11.1,6.2,11.1,6.2c0.3,1-4,11.3-5.2,11.3C392.8,153.8,379.8,148.4,369.1,143.2"/>
	<path class="st4" d="M414.5,156.4c2.7,1.3,5.6,2.5,8.4,3.6c1.5,0.5,3.1,1.1,4.7,1.1c3.8,0,6.7-4,3.4-6.9c-1.5-1.3-3.1-2.3-4.9-3.1
		c-2.6-1.1-1.2,1.1-2.1,2.8c-1.1,2-1.8,1.9-3.7,1c-2.4-1.3-4-2.7-6.9-2.7c-0.8,0-1.7,0.2-2.1,0.9c-0.3,0.5-0.1,1.2,0.3,1.7
		s0.9,0.8,1.5,1C413.6,156,414,156.2,414.5,156.4"/>
	<path class="st32" d="M454,106c0-0.2-0.1-0.4-0.1-0.5c0.1-1.7,1.1-2.5,1.7-4.1c0.2-0.7-0.9-2.2,0.6-2.6c1.6-0.4,4.6-0.1,5.6-1.6
		c0.5-0.6,1-1.5,1.8-1.3c0.3,0.1,0.5,0.2,0.7,0.4c6.4,6.2,0.2,13.6-6.8,13.4c-0.6,0-1,0-1.5-0.3c-0.8-0.4-1.1-1.3-1.5-2
		C454.3,107,454.1,106.5,454,106"/>
	<path class="st21" d="M466.2,107.1c1.6,0.7,3.5,0,4.6-1.3s1.4-3.2,1.1-4.9s-1.1-3.3-2-4.7c-1.1-1.7-2.5-3.3-4.4-4.1
		c-1.1-0.4-2.2-0.5-3.3-0.5c-0.8,0-1.6,0-2.2,0.6c-0.4,0.4-0.6,0.9-0.7,1.5c-0.8,3.5-0.2,4,2.1,6.3
		C463.5,102,464.9,104.5,466.2,107.1"/>
	<path class="st22" d="M361.4,69v-5.3c0,0,28.6-2.7,45.8,8.8L361.4,69z"/>
	<path class="st21" d="M355.5,68.5l3.8-3c0,0,23.4-4.5,47.9,7v63.6c0,0-16.6-11.9-51.7-7.2L355.5,68.5L355.5,68.5z"/>
	<path class="st22" d="M453,69v-5.3c0,0-28.6-2.7-45.8,8.8L453,69z"/>
	<path class="st21" d="M458.9,68.5l-3.8-3c0,0-23.4-4.5-47.9,7v63.6c0,0,16.6-11.9,51.7-7.2L458.9,68.5L458.9,68.5z"/>
	<path class="st3" d="M407.2,72.5c2.7-0.1,4.7-0.8,4.8-1.5l0,0l0,0h0.1c0.8-0.3,4.3-1.1,5.4-1.3c0.1,0,0.2,0,0.2-0.1l0,0
		c3-0.8,6.1-1.3,9.2-1.7c11.7-1.8,20.4-1.5,25.2-0.8c1.8,0.2,3.6,0.6,5.3,1.2c0.3,0.1,0.6,0.2,0.9,0.4l0,0l0,0
		c0.6,0.3,1.1,0.7,1.4,1.3c0.5,0.8,0.5,1.6,0.5,2.5v56.2c0,1.6-1.3,3.2-2.9,2.9c-9.6-1.8-17.4-1.7-23.4-1.3
		c-6.3,0.4-12.7,1.4-18.8,3.1c-2,0.5-4.5,1-6.3,2c-0.2,0.1-0.4,0.2-0.6,0.2c-0.1,0-0.3,0-0.4,0c-0.2,0-0.3,0-0.5-0.1
		c-0.1-0.1-0.3-0.1-0.4-0.2c-0.7-0.3-1.1-1-1.1-1.8V74C406,73.4,406.5,72.9,407.2,72.5"/>
	<path class="st3" d="M407.2,72.5c-2.7-0.1-4.7-0.8-4.8-1.5l0,0l0,0h-0.1c-0.8-0.3-4.3-1.1-5.4-1.3c-0.1,0-0.2,0-0.2-0.1l0,0
		c-3-0.8-6.1-1.3-9.2-1.7c-11.7-1.8-20.4-1.5-25.2-0.8c-1.8,0.2-3.6,0.6-5.3,1.2c-0.3,0.1-0.6,0.2-0.9,0.4l0,0l0,0
		c-0.6,0.3-1.1,0.7-1.4,1.3c-0.5,0.8-0.5,1.6-0.5,2.5v56.2c0,1.6,1.3,3.2,2.9,2.9c9.6-1.8,17.4-1.7,23.4-1.3
		c6.3,0.4,12.7,1.4,18.8,3.1c2,0.5,4.5,1,6.3,2c0.2,0.1,0.4,0.2,0.6,0.2c0.1,0,0.3,0,0.4,0c0.2,0,0.3,0,0.5-0.1
		c0.1-0.1,0.3-0.1,0.4-0.2c0.7-0.3,1.1-1,1.1-1.8V74C408.4,73.4,408,72.9,407.2,72.5"/>
	<g class="st33">
		<g>
			<g>
				<defs>
					<rect id="SVGID_13_" x="361.4" y="82.2" width="47" height="53.2"/>
				</defs>
				<clipPath id="SVGID_14_">
					<use xlink:href="#SVGID_13_"  style="overflow:visible;"/>
				</clipPath>
				<path class="st34" d="M402.4,82.2c0,0-5.7,37.1-41,48.5l0,0c7.6-1,13.9-0.9,18.9-0.6c6.3,0.4,12.7,1.4,18.8,3.1
					c2,0.5,4.5,1,6.3,2c0.2,0.1,0.4,0.2,0.6,0.2c0.1,0,0.3,0,0.4,0c0.2,0,0.3,0,0.5-0.1c0.1-0.1,0.3-0.1,0.4-0.2
					c0.7-0.3,1.1-1,1.1-1.8V82.1L402.4,82.2L402.4,82.2z"/>
			</g>
		</g>
	</g>
	<path class="st7" d="M407.2,72.4c-2.7,0-4.8-0.8-4.8-1.5v63.6c0,0.9,2.2,1.7,4.8,1.7c2.7,0,4.8-0.7,4.8-1.7V70.9
		C411.8,71.7,409.9,72.4,407.2,72.4"/>
	<g class="st35">
		<g>
			<g>
				<defs>
					<rect id="SVGID_15_" x="354.1" y="66.4" width="106.3" height="7"/>
				</defs>
				<clipPath id="SVGID_16_">
					<use xlink:href="#SVGID_15_"  style="overflow:visible;"/>
				</clipPath>
				<path class="st36" d="M459.9,69.8c-0.4-0.6-0.9-1-1.4-1.3l0,0l0,0c-0.3-0.1-0.6-0.3-0.9-0.4c-1.7-0.6-3.5-0.9-5.3-1.2
					c-4.9-0.7-13.5-1-25.2,0.8c-3.1,0.4-6.2,1-9.2,1.7l0,0c-0.1,0-0.2,0-0.2,0.1c-1.1,0.2-4.7,0.9-5.4,1.3h-0.1l0,0l0,0
					c0,0.1,0,0.1-0.1,0.2c-0.5,0.7-2.3,1.3-4.7,1.3c-2.6,0-4.7-0.7-4.8-1.4l0,0l0,0c0,0,0,0,0-0.1v0.1l0,0l0,0h-0.1
					c-0.8-0.3-4.3-1.1-5.4-1.3c-0.1,0-0.2,0-0.2-0.1l0,0c-3-0.8-6.1-1.3-9.2-1.7C376,66,367.3,66.3,362.5,67
					c-1.8,0.2-3.6,0.6-5.3,1.2c-0.3,0.1-0.6,0.2-0.9,0.4l0,0l0,0c-0.6,0.3-1.1,0.7-1.4,1.3c-0.5,0.8-0.5,1.6-0.5,2.5v1.1
					c0-0.9,0-1.7,0.5-2.5c0.4-0.6,0.9-1,1.4-1.3l0,0l0,0c0.3-0.1,0.6-0.3,0.9-0.4c1.7-0.6,3.5-0.9,5.3-1.2c4.9-0.7,13.5-1,25.2,0.8
					c3.1,0.4,6.2,1,9.2,1.7l0,0c0.1,0,0.2,0,0.2,0.1c1.1,0.2,4.7,0.9,5.4,1.3h0.1c0,0,0,0,0,0.1l0,0l0,0c0.2,0.7,2.3,1.4,4.8,1.4
					c2.4,0,4.3-0.5,4.7-1.3c0-0.1,0-0.1,0.1-0.2l0,0l0,0h0.1c0.8-0.3,4.3-1.1,5.4-1.3c0.1,0,0.2,0,0.2-0.1l0,0
					c3-0.8,6.1-1.3,9.2-1.7c11.7-1.8,20.4-1.5,25.2-0.8c1.8,0.2,3.6,0.6,5.3,1.2c0.3,0.1,0.6,0.2,0.9,0.4l0,0l0,0
					c0.6,0.3,1.1,0.7,1.4,1.3c0.5,0.8,0.5,1.6,0.5,2.5v-1.1C460.4,71.4,460.4,70.6,459.9,69.8"/>
			</g>
		</g>
	</g>
	<g class="st33">
		<g>
			<g>
				<defs>
					<rect id="SVGID_17_" x="402.4" y="70.9" width="3.6" height="65.2"/>
				</defs>
				<clipPath id="SVGID_18_">
					<use xlink:href="#SVGID_17_"  style="overflow:visible;"/>
				</clipPath>
				<path class="st37" d="M402.4,70.9v63.6c0,0.8,1.5,1.4,3.6,1.6V72.3C404,72.1,402.4,71.5,402.4,70.9"/>
			</g>
		</g>
	</g>
	<path class="st7" d="M451.7,74c-4.7-0.7-13-1-24.3,0.8c-2.2,0.3-5.9,1.1-7.8,1.5c-0.7,0.2-1.3,0.8-1.3,1.5v12.8
		c0,1,0.9,1.8,1.9,1.5c4.6-1,9.5-2.4,15.2-2.7c4.9-0.3,9.7-0.4,17,0.6c0.9,0.1,1.8-0.6,1.8-1.6V75.7c0-0.8-0.6-1.4-1.3-1.6
		C452.5,74.1,452.1,74,451.7,74"/>
	<path class="st32" d="M363,99.9c0-0.2,0.1-0.4,0.1-0.5c-0.1-1.7-1.1-2.5-1.7-4.1c-0.2-0.7,0.9-2.2-0.6-2.6
		c-1.6-0.4-4.6-0.1-5.6-1.6c-0.5-0.6-1-1.5-1.8-1.3c-0.3,0.1-0.5,0.2-0.7,0.4c-6.4,6.2-0.2,13.6,6.8,13.4c0.6,0,1,0,1.5-0.3
		c0.8-0.4,1.1-1.3,1.5-2C362.7,100.8,362.9,100.4,363,99.9"/>
	<path class="st21" d="M350.8,101c-1.6,0.7-3.5,0-4.6-1.3s-1.4-3.2-1.1-4.9c0.3-1.7,1.1-3.3,2-4.7c1.1-1.7,2.5-3.3,4.4-4.1
		c1.1-0.4,2.2-0.5,3.3-0.5c0.8,0,1.6,0,2.2,0.6c0.4,0.4,0.6,0.9,0.7,1.5c0.8,3.5,0.2,4-2.1,6.3C353.6,95.9,352.1,98.4,350.8,101"/>
	<path class="st2" d="M519.4-26.8c-0.1-0.1-0.3-0.2-0.4-0.3c-0.9-1-0.7-2-1.2-3.1c-0.2-0.5-1.9-0.9-1.1-1.8c0.3-0.3,1.1-1.1,1.7-1.8
		c1.1-1.3,0.1-3.2,1.2-4.6c1-1.3,4.6-2.4,5.9-0.6c0.5,0.7-0.2,1.8-0.1,2.6c0.2,1.2,1.1,1.9,1.5,3c0.4,1,0.6,2.3,0.5,3.3
		c-0.1,1.9-2.1,3-3.7,4c-0.4,0.3-0.7,0.4-1.1,0.5c-0.8,0.1-1.5-0.2-2.1-0.5C520.2-26.3,519.8-26.6,519.4-26.8"/>
	<path class="st11" d="M529.8-32.3c1.5-0.7,2.3-2.6,2-4.2c-0.3-1.7-1.4-3.1-2.9-4c-1.4-0.9-3.1-1.3-4.8-1.6c-2-0.3-4.1-0.3-5.8,0.6
		c-1,0.5-1.8,1.3-2.5,2.1c-0.5,0.5-1,1.2-1,1.9c0,0.5,0.3,1,0.6,1.4c2.1,2.8,2.8,2.7,6,2.5C524.2-33.6,527.1-33,529.8-32.3"/>
	<path class="st2" d="M449.9-29.6c0.1-0.1,0.3-0.1,0.4-0.2c1.1-0.9,1-1.8,1.7-2.9c0.3-0.5,2-0.5,1.4-1.6c-0.2-0.4-0.9-1.2-1.4-2.1
		c-0.9-1.5,0.4-3.2-0.5-4.8c-0.8-1.4-4.2-3.1-5.7-1.5c-0.6,0.6-0.1,1.8-0.3,2.5c-0.3,1.1-1.4,1.7-2,2.7c-0.5,0.9-0.9,2.1-1.1,3.1
		c-0.2,1.9,1.6,3.3,3,4.6c0.4,0.3,0.6,0.5,1,0.7c0.7,0.2,1.5,0,2.2-0.2C449.1-29.3,449.5-29.4,449.9-29.6"/>
	<path class="st11" d="M440.6-36.8c-1.4-1-1.8-2.9-1.3-4.5s1.9-2.8,3.5-3.4c1.5-0.6,3.3-0.8,4.9-0.8c2,0,4.1,0.4,5.7,1.6
		c0.9,0.7,1.6,1.6,2.2,2.5c0.4,0.6,0.8,1.4,0.7,2.1c-0.1,0.5-0.5,0.9-0.9,1.3c-2.5,2.4-3.2,2.2-6.3,1.5
		C446.2-37.1,443.4-37,440.6-36.8"/>
</g>
</svg>
