<?xml version="1.0" encoding="utf-8"?>
<!-- Generator: Adobe Illustrator 19.0.0, SVG Export Plug-In . SVG Version: 6.00 Build 0)  -->
<svg version="1.1" id="Layer_1" xmlns="http://www.w3.org/2000/svg" xmlns:xlink="http://www.w3.org/1999/xlink" x="0px" y="0px"
	 viewBox="40 -26 150 123" style="enable-background:new 40 -26 150 123;" xml:space="preserve">
<style type="text/css">
	.st0{fill:#714091;}
	.st1{fill:#00AB97;}
	.st2{fill:none;}
	.st3{fill:#52555B;}
	.st4{fill:#EE5649;}
	.st5{fill:#FFFFFF;}
	.st6{fill:#FFC107;}
</style>
<path id="XMLID_1_" class="st0" d="M97,76.6c6.9,0.9,13.9,1,20.8,1.3c3.2,0.1,6.3,0,9.2,1.1c2.8,1.1,4.9,3.2,7.8,4.1
	c2.2,0.7,4.6,0.7,6.9,0.4c9.7-1.1,18.9-6.5,24.5-14.5c5.2-7.3,7.3-16.7,6-25.5c-0.8-5.4-3.3-10.4-3.9-15.8
	c-0.6-5.7,1.6-10.7,2.9-16.2c1-3.8,1.4-7.7,1.2-11.6c-0.1-2.3-0.4-4.6-1.4-6.6c-2.9-5.4-10.2-6.4-16.3-5.8
	c-7.5,0.8-15.1,3.1-21.7,6.7c-5.2,2.9-10.4,7.1-16.4,8.2c-6.8,1.3-12-3.4-18.1-5.5C84.7-7.7,68.1,1.7,62.1,14.2
	c-7.5,15.4-6.6,40.6,7.4,52c7.6,6.2,17.5,9.2,27.2,10.5C96.8,76.6,96.9,76.6,97,76.6z"/>
<g>
	<path class="st1" d="M180.5,21.6c0-0.1-0.1-0.3-0.1-0.4v0.4H180.5z"/>
</g>
<g>
	<path class="st1" d="M180.4,29.1c0-0.1,0.1-0.2,0.1-0.4h-0.1V29.1z"/>
</g>
<g>
	<line class="st2" x1="170.5" y1="8.8" x2="170.5" y2="8.8"/>
</g>
<g>
	<line class="st2" x1="164.5" y1="13.9" x2="164.5" y2="13.9"/>
</g>
<g>
	<line class="st2" x1="167.1" y1="-0.6" x2="167.1" y2="-0.6"/>
</g>
<g>
	<line class="st2" x1="158.1" y1="7.6" x2="158.1" y2="7.6"/>
</g>
<g>
	<g>
		<g>
			<path class="st3" d="M139.1,33.2"/>
		</g>
	</g>
	<g>
		<path class="st4" d="M131.9,31"/>
	</g>
	<g>
		<g>
			<path class="st4" d="M135.3,35.3"/>
		</g>
	</g>
	<rect x="109.1" y="11.4" class="st2" width="3.9" height="1.3"/>
	<path class="st5" d="M126.6,13.4h-5.7v3.3h5.7c0.6,0,1.3,0,1.4,1.1v39.5c-0.1,1.1-0.8,1.1-1.4,1.1h-31c-0.6,0-1.4,0-1.4-1.1l0-39.3
		c0.1-1.1,0.8-1.1,1.4-1.1h5.7v-3.3h-5.7c-4.7,0-4.7,4.3-4.7,4.3v39.5c0,0,0,0,0,0.1c0,0.7,0.4,4.2,4.7,4.2h31
		c4.3,0,4.7-3.6,4.7-4.2V17.6C131.2,17,130.8,13.4,126.6,13.4z"/>
	<path class="st5" d="M118.9,13.4H115v-1.9c0-1.1-0.9-1.9-1.9-1.9h-3.9c-1.1,0-1.9,0.9-1.9,1.9v1.9h-3.9v3.3h15.6V13.4z M109.1,12.7
		v-1.3h3.9v1.3v0.6h-3.9V12.7z"/>
	<rect x="97.9" y="22.3" class="st6" width="4.8" height="6.4"/>
	<rect x="97.9" y="30.6" class="st6" width="4.8" height="6.4"/>
	<rect x="97.9" y="38.9" class="st6" width="4.8" height="6.4"/>
	<rect x="97.9" y="47.4" class="st6" width="4.8" height="6.4"/>
	<rect x="104.4" y="22.3" class="st5" width="19.8" height="1.3"/>
	<rect x="104.4" y="27.3" class="st5" width="19.8" height="1.3"/>
	<rect x="104.4" y="24.8" class="st5" width="19.8" height="1.3"/>
	<rect x="104.4" y="30.6" class="st5" width="19.8" height="1.3"/>
	<rect x="104.4" y="35.7" class="st5" width="19.8" height="1.3"/>
	<rect x="104.4" y="33.2" class="st5" width="19.8" height="1.3"/>
	<rect x="104.4" y="38.9" class="st5" width="19.8" height="1.3"/>
	<rect x="104.4" y="44" class="st5" width="19.8" height="1.3"/>
	<rect x="104.4" y="41.4" class="st5" width="19.8" height="1.3"/>
	<rect x="104.4" y="47.4" class="st5" width="19.8" height="1.3"/>
	<rect x="104.4" y="52.5" class="st5" width="19.8" height="1.3"/>
	<rect x="104.4" y="49.9" class="st5" width="19.8" height="1.3"/>
</g>
</svg>
