<?xml version="1.0" encoding="utf-8"?>
<!-- Generator: Adobe Illustrator 19.0.0, SVG Export Plug-In . SVG Version: 6.00 Build 0)  -->
<svg version="1.1" id="Layer_1" xmlns="http://www.w3.org/2000/svg" xmlns:xlink="http://www.w3.org/1999/xlink" x="0px" y="0px"
	 viewBox="40 -26 150 123" style="enable-background:new 40 -26 150 123;" xml:space="preserve">
<style type="text/css">
	.st0{fill:#714091;}
	.st1{fill:#FFFFFF;}
	.st2{fill:#FFC107;}
	.st3{fill:#00AB97;}
	.st4{fill:#00AB95;}
	.st5{fill:none;stroke:#FBFCFF;stroke-width:0;stroke-linecap:round;stroke-linejoin:round;}
</style>
<g>
	<path id="XMLID_1_" class="st0" d="M97,76.5c6.9,0.9,13.9,1,20.8,1.3c3.2,0.1,6.3,0,9.2,1.1c2.8,1.1,4.9,3.2,7.8,4.1
		c2.2,0.7,4.6,0.7,6.9,0.4c9.7-1.1,18.9-6.5,24.5-14.5c5.2-7.3,7.3-16.7,6-25.5c-0.8-5.4-3.3-10.4-3.9-15.8
		c-0.6-5.7,1.6-10.7,2.9-16.2c1-3.8,1.4-7.7,1.2-11.6c-0.1-2.3-0.4-4.6-1.4-6.6c-2.9-5.4-10.2-6.4-16.3-5.8
		c-7.5,0.8-15.1,3.1-21.7,6.7c-5.2,2.9-10.4,7.1-16.4,8.2c-6.8,1.3-12-3.4-18.1-5.5C84.7-7.8,68.1,1.6,62.1,14.1
		c-7.5,15.4-6.6,40.6,7.4,52c7.6,6.2,17.5,9.2,27.2,10.5C96.8,76.5,96.9,76.5,97,76.5z"/>
	<g>
		<path class="st1" d="M96.6,27h33v-3.5H96.7c-1.2-0.1-1.2-0.9-1.2-1.5v-4.1c0-0.7,0-1.5,1.2-1.5l32.8,0v-3.5H96.7c0,0,0,0-0.1,0
			c-0.7,0-4.5,0.5-4.5,5V22C92.1,26.5,95.9,26.9,96.6,27z"/>
	</g>
	<g>
		<path class="st2" d="M96.7,39.1c-1.2-0.1-1.2-0.9-1.2-1.5v-4.1c0-0.7,0-1.5,1.2-1.5l47.7,0v-3.5h-13.7h-1H96.7c0,0,0,0-0.1,0
			c-0.7,0-4.5,0.5-4.5,5v4.1c0,4.6,3.8,5,4.5,5h33.2h1.1h13.6v-3.5H96.7z"/>
	</g>
	<g>
		<path class="st3" d="M140.5,47.5c0-0.1-0.1-0.3-0.1-0.4v0.4H140.5z"/>
	</g>
	<g>
		<path class="st1" d="M96.7,54.6c-1.2-0.1-1.2-0.9-1.2-1.5v-4.1c0-0.7,0-1.5,1.2-1.5l38.2,0V44H96.7c0,0,0,0-0.1,0
			c-0.7,0-4.5,0.5-4.5,5v4.1c0,4.6,3.8,5,4.5,5H135v-3.5H96.7z"/>
	</g>
	<g>
		<path class="st3" d="M140.4,55c0-0.1,0.1-0.2,0.1-0.4h-0.1V55z"/>
	</g>
	<g>
		<polygon class="st4" points="140.4,47.5 140.4,47.1 140.4,44 136.1,44 135,44 135,47.5 		"/>
	</g>
	<g>
		<polygon class="st1" points="135,54.6 135,58.1 136.2,58.1 140.4,58.1 140.4,55 140.4,54.6 		"/>
	</g>
	<g>
		<path class="st2" d="M146.4,49.7l-9.5-9.8c1.2-1.9,1.8-4.2,1.9-6.6c0.1-7.3-5.7-13.2-13-13.3c-7.3-0.1-13.2,5.7-13.3,13
			c-0.1,7.3,5.7,13.2,13,13.3c2.5,0,4.8-0.6,6.7-1.8l9.5,9.8c1.3,1.3,3.4,1.3,4.6,0.1C147.6,53.1,147.6,51,146.4,49.7z M125.4,43.1
			c-5.6-0.1-10.1-4.6-10-10.2c0.1-5.6,4.6-10.1,10.2-10c5.6,0.1,10.1,4.6,10,10.2C135.5,38.7,131,43.2,125.4,43.1z"/>
	</g>
	<g>
		<line class="st5" x1="130.5" y1="34.7" x2="130.5" y2="34.7"/>
	</g>
	<g>
		<line class="st5" x1="124.5" y1="39.8" x2="124.5" y2="39.8"/>
	</g>
	<g>
		<line class="st5" x1="127.1" y1="25.3" x2="127.1" y2="25.3"/>
	</g>
	<g>
		<line class="st5" x1="118.1" y1="33.5" x2="118.1" y2="33.5"/>
	</g>
	<g>
		<circle class="st1" cx="125.5" cy="33" r="10.1"/>
	</g>
</g>
</svg>
