<?xml version="1.0" encoding="utf-8"?>
<!-- Generator: Adobe Illustrator 19.0.0, SVG Export Plug-In . SVG Version: 6.00 Build 0)  -->
<svg version="1.1" id="Layer_1" xmlns="http://www.w3.org/2000/svg" xmlns:xlink="http://www.w3.org/1999/xlink" x="0px" y="0px"
	 viewBox="40 -26 150 123" style="enable-background:new 40 -26 150 123;" xml:space="preserve">
<style type="text/css">
	.st0{fill:#714091;}
	.st1{fill:#FFC107;}
	.st2{fill:#FFFFFF;}
</style>
<g>
	<path id="XMLID_16_" class="st0" d="M97,76.5c6.9,0.9,13.9,1,20.8,1.3c3.2,0.1,6.3,0,9.2,1.1c2.8,1.1,4.9,3.2,7.8,4.1
		c2.2,0.7,4.6,0.7,6.9,0.4c9.7-1.1,18.9-6.5,24.5-14.5c5.2-7.3,7.3-16.7,6-25.5c-0.8-5.4-3.3-10.4-3.9-15.8
		c-0.6-5.7,1.6-10.7,2.9-16.2c1-3.8,1.4-7.7,1.2-11.6c-0.1-2.3-0.4-4.6-1.4-6.6c-2.9-5.4-10.2-6.4-16.3-5.8
		c-7.5,0.8-15.1,3.1-21.7,6.7c-5.2,2.9-10.4,7.1-16.4,8.2c-6.8,1.3-12-3.4-18.1-5.5C84.7-7.8,68.1,1.6,62.1,14.1
		c-7.5,15.4-6.6,40.6,7.4,52c7.6,6.2,17.5,9.2,27.2,10.5C96.8,76.5,96.9,76.5,97,76.5z"/>
	<g>
		<g id="XMLID_14_">
			<path id="XMLID_15_" class="st1" d="M120.6,16.4c5.8-3.1,12.3,3.9,12.3,3.9s-1-6.5-7.5-7.6c-5.2-0.9-7.6,1.4-7.6,1.4l-3.1-2.2
				l0.6,8.3l8.4-1.4L120.6,16.4L120.6,16.4z M120.6,16.4"/>
		</g>
		<path id="XMLID_11_" class="st2" d="M141,23.9H98.6l-2.1-5.3l-0.9-2.1c-0.1-0.3-0.3-0.5-0.6-0.7c-0.3-0.2-0.6-0.3-0.9-0.3h-7.7
			c-0.8,0-1.5,0.7-1.5,1.5c0,0.8,0.7,1.5,1.6,1.5h6.7l6.1,15.1l0.3,0.6c0,0,0,0,0,0l5.9,14.6c0.8,2.5,3.3,2.8,3.9,2.9
			c0.1,0,0.1,0,0.1,0l23.4,0c0,0,0,0,0.1,0c0.5,0,3.1-0.3,3.9-2.9l8.4-20.5C145.1,24.4,141.6,24,141,23.9z M140.9,27.1
			c1,0.1,1,0.8,1,1.4l-1.6,3.8h-38.5l0-0.1l-0.2-0.5l-1.8-4.7H140.9z M139,35.5l-2,4.7h-31.9l-2-4.7H139z M132.7,48.7l-23.2,0
			c-0.6,0-0.9-0.3-1-0.6c0-0.1-0.6-1.3-1.4-3.2l-0.7-1.6h29.3l-2,4.8C133.6,48.5,133.3,48.7,132.7,48.7z"/>
		<g id="XMLID_5_">
			<circle id="XMLID_10_" class="st2" cx="116.9" cy="56.2" r="2.8"/>
			<circle id="XMLID_6_" class="st2" cx="125.1" cy="56.2" r="2.8"/>
		</g>
	</g>
</g>
</svg>
