<?xml version="1.0" encoding="utf-8"?>
<!-- Generator: Adobe Illustrator 19.0.0, SVG Export Plug-In . SVG Version: 6.00 Build 0)  -->
<svg version="1.1" id="Layer_1" xmlns="http://www.w3.org/2000/svg" xmlns:xlink="http://www.w3.org/1999/xlink" x="0px" y="0px"
	 viewBox="40 -26 150 123" style="enable-background:new 40 -26 150 123;" xml:space="preserve">
<style type="text/css">
	.st0{fill:#714091;}
	.st1{fill:#00AB97;}
	.st2{fill:none;}
	.st3{fill:#52555B;}
	.st4{fill:#EE5649;}
	.st5{fill-rule:evenodd;clip-rule:evenodd;fill:#EE5649;}
	.st6{fill:#FFC107;}
	.st7{fill:#FFFFFF;}
</style>
<path id="XMLID_1_" class="st0" d="M97,76.6c6.9,0.9,13.9,1,20.8,1.3c3.2,0.1,6.3,0,9.2,1.1c2.8,1.1,4.9,3.2,7.8,4.1
	c2.2,0.7,4.6,0.7,6.9,0.4c9.7-1.1,18.9-6.5,24.5-14.5c5.2-7.3,7.3-16.7,6-25.5c-0.8-5.4-3.3-10.4-3.9-15.8
	c-0.6-5.7,1.6-10.7,2.9-16.2c1-3.8,1.4-7.7,1.2-11.6c-0.1-2.3-0.4-4.6-1.4-6.6c-2.9-5.4-10.2-6.4-16.3-5.8
	c-7.5,0.8-15.1,3.1-21.7,6.7c-5.2,2.9-10.4,7.1-16.4,8.2c-6.8,1.3-12-3.4-18.1-5.5C84.7-7.7,68.1,1.7,62.1,14.2
	c-7.5,15.4-6.6,40.6,7.4,52c7.6,6.2,17.5,9.2,27.2,10.5C96.8,76.6,96.9,76.6,97,76.6z"/>
<g>
	<path class="st1" d="M140.5,47.6c0-0.1-0.1-0.3-0.1-0.4v0.4H140.5z"/>
</g>
<g>
	<path class="st1" d="M140.4,55.1c0-0.1,0.1-0.2,0.1-0.4h-0.1V55.1z"/>
</g>
<g>
	<line class="st2" x1="130.5" y1="34.8" x2="130.5" y2="34.8"/>
</g>
<g>
	<line class="st2" x1="124.5" y1="39.9" x2="124.5" y2="39.9"/>
</g>
<g>
	<line class="st2" x1="127.1" y1="25.4" x2="127.1" y2="25.4"/>
</g>
<g>
	<line class="st2" x1="118.1" y1="33.6" x2="118.1" y2="33.6"/>
</g>
<g>
	<g>
		<path class="st3" d="M103,59.6"/>
	</g>
</g>
<g>
	<path class="st4" d="M95.8,57.4"/>
</g>
<g>
	<g>
		<path class="st5" d="M99.2,61.7"/>
	</g>
</g>
<path class="st6" d="M123.7,18.4c0.7,0.6,0.7,1.6,0,2.2c-0.6,0.6-1.7,0.6-2.4,0c-2.5-2.3-5.1-3-7.3-2.8c-4,0.2-7.1,2.9-7.3,3
	c-0.3,0.3-0.7,0.4-1.1,0.4c-0.5,0-0.9-0.2-1.2-0.5c-0.6-0.6-0.6-1.6,0.1-2.2c0.1-0.1,2.5-2.2,6-3.2c1-0.3,2.2-0.6,3.5-0.6
	C116.9,14.6,120.3,15.4,123.7,18.4z"/>
<path class="st6" d="M127.6,17.1c-0.3,0.3-0.7,0.5-1.2,0.5c-0.4,0-0.9-0.1-1.2-0.5c-3.9-3.6-7.8-4.6-11.3-4.4
	c-6.2,0.3-11,4.4-11.3,4.7c-0.7,0.6-1.7,0.5-2.4-0.1c-0.6-0.6-0.6-1.6,0.1-2.2c0.1-0.1,3.6-3.1,8.6-4.6c1.5-0.4,3.1-0.8,4.9-0.9
	c4.1-0.2,9,0.9,13.7,5.3C128.2,15.5,128.3,16.5,127.6,17.1z"/>
<g>
	<path class="st6" d="M102.5,31.3c0.2,0.2,0.5,0.3,0.8,0.3c0.3,0,0.6-0.1,0.9-0.4c0.5-0.5,0.5-1.2,0-1.7l-0.9-0.8l-3.2-3.2
		c-0.5-0.5-1.2-0.5-1.7,0c-0.5,0.5-0.5,1.2,0,1.7L102.5,31.3z"/>
</g>
<g>
	<path class="st6" d="M99.9,42c0-0.7-0.5-1.2-1.2-1.2l-5.7,0.1c-0.7,0-1.2,0.5-1.2,1.2c0,0.7,0.5,1.2,1.2,1.2l5.7-0.1
		C99.3,43.2,99.9,42.7,99.9,42z"/>
</g>
<g>
	<path class="st6" d="M103.5,52.3c-0.3,0-0.6,0.1-0.8,0.4l-4,4.1c-0.5,0.5-0.5,1.2,0,1.7c0.5,0.5,1.2,0.5,1.7,0l3.2-3.2l0.8-0.9
		c0.5-0.5,0.5-1.2,0-1.7C104.2,52.4,103.9,52.3,103.5,52.3z"/>
</g>
<g>
	<path class="st6" d="M131.3,25.2c-0.5-0.5-1.2-0.5-1.7,0l-3.1,3.1l-0.9,1c-0.5,0.5-0.5,1.2,0,1.7c0.3,0.3,0.6,0.4,1,0.3
		c0.3,0,0.5-0.1,0.7-0.4l4-4.1C131.8,26.5,131.7,25.7,131.3,25.2z"/>
</g>
<g>
	<path class="st6" d="M137,40.4l-5.7,0.1c-0.7,0-1.2,0.5-1.2,1.2c0,0.7,0.5,1.2,1.2,1.2l5.7-0.1c0.7,0,1.2-0.5,1.2-1.2
		C138.2,41,137.7,40.4,137,40.4z"/>
</g>
<g>
	<path class="st6" d="M127.5,52.4c-0.2-0.2-0.5-0.3-0.7-0.3c-0.3,0-0.7,0.1-0.9,0.4c-0.5,0.5-0.5,1.2,0,1.7l1,0.9l3.1,3.1
		c0.5,0.5,1.2,0.5,1.7,0c0.5-0.5,0.5-1.2,0-1.7L127.5,52.4z"/>
</g>
<path class="st6" d="M120.1,22.6c0.7,0.6,0.7,1.7,0,2.3c-0.3,0.3-0.8,0.5-1.2,0.5c-0.4,0-0.9-0.2-1.2-0.5c-1.2-1.1-2.5-1.5-3.6-1.4
	c-1.9,0.1-3.4,1.3-3.7,1.5c-0.7,0.6-1.8,0.6-2.5-0.1c-0.6-0.7-0.6-1.7,0.1-2.3c0.2-0.1,1.6-1.4,3.7-2c0.8-0.2,1.5-0.4,2.2-0.4
	C116.2,20.2,118.3,21,120.1,22.6z"/>
<path class="st7" d="M126.6,36.1c-2.1-4.3-6.5-7.2-11.6-7.1c-2.6,0-5,0.8-7,2.1c-2,1.3-3.6,3.2-4.6,5.4c-0.8,1.7-1.2,3.5-1.2,5.5
	c0,2,0.5,3.8,1.3,5.4c1,2.1,2.5,3.8,4.4,5.1l0.1,4.1c0,3.5,2.9,6.3,6.4,6.3l0.9,0l0.7,0c3.5,0,6.3-2.9,6.3-6.4l-0.1-3.9
	c1.9-1.3,3.5-3.1,4.5-5.2c0.8-1.7,1.3-3.6,1.2-5.6C127.9,39.7,127.4,37.8,126.6,36.1z M120.1,50.5c-0.5,0.3-0.8,0.8-0.8,1.3l0.1,5.6
	l-8.6,0.1l-0.1-5.7c0-0.5-0.3-1-0.7-1.3c-3.1-1.8-4.9-5-4.9-8.5c0-2.7,1-5.2,2.9-7.1c1.9-1.9,4.4-3,7.1-3l0.1,0c2.6,0,5.1,1,7,2.9
	c1.9,1.9,3,4.4,3,7.1C125.1,45.3,123.2,48.7,120.1,50.5z"/>
</svg>
