<?xml version="1.0" encoding="utf-8"?>
<!-- Generator: Adobe Illustrator 19.0.0, SVG Export Plug-In . SVG Version: 6.00 Build 0)  -->
<svg version="1.1" id="Layer_1" xmlns="http://www.w3.org/2000/svg" xmlns:xlink="http://www.w3.org/1999/xlink" x="0px" y="0px"
	 viewBox="-20.5 215.3 426.7 369.9" style="enable-background:new -20.5 215.3 426.7 369.9;" xml:space="preserve">
<style type="text/css">
	.st0{fill:#00AB97;}
	.st1{fill:none;}
	.st2{fill:#52555B;}
	.st3{fill:#FFFFFF;}
	.st4{fill:#FFC428;}
	.st5{opacity:0.57;}
	.st6{fill:url(#SVGID_1_);}
	.st7{fill:url(#SVGID_2_);}
	.st8{fill:url(#SVGID_3_);}
	.st9{fill:url(#SVGID_4_);}
	.st10{fill:url(#SVGID_5_);}
	.st11{fill:url(#SVGID_6_);}
	.st12{fill:url(#SVGID_7_);}
	.st13{fill:#F9FBFC;}
	.st14{fill:url(#SVGID_8_);}
	.st15{fill:#CFE3FF;}
	.st16{fill:url(#SVGID_9_);}
	.st17{fill:url(#SVGID_10_);}
	.st18{fill:#FF9D6F;}
	.st19{opacity:0.21;fill:url(#SVGID_11_);enable-background:new    ;}
	.st20{fill:#113C7A;}
	.st21{fill:url(#SVGID_12_);}
	.st22{fill:#FF7C40;}
	.st23{fill:url(#SVGID_13_);}
	.st24{fill:url(#SVGID_14_);}
	.st25{fill:#843837;}
	.st26{fill:url(#SVGID_15_);}
	.st27{opacity:0.67;}
	.st28{opacity:0.53;}
	.st29{fill:url(#SVGID_16_);}
	.st30{opacity:0.46;}
	.st31{fill:url(#SVGID_17_);}
	.st32{opacity:0.21;}
	.st33{fill:url(#SVGID_18_);}
	.st34{fill:#5155D4;}
	.st35{fill:#343996;}
	.st36{fill:#FF3D9D;}
</style>
<g>
	<path class="st0" d="M-547.5,733.4c0-0.1-0.1-0.3-0.1-0.4v0.4H-547.5z"/>
</g>
<g>
	<path class="st0" d="M-547.6,740.9c0-0.1,0.1-0.2,0.1-0.4h-0.1V740.9z"/>
</g>
<g>
	<line class="st1" x1="-557.5" y1="720.6" x2="-557.5" y2="720.6"/>
</g>
<g>
	<line class="st1" x1="-563.5" y1="725.7" x2="-563.5" y2="725.7"/>
</g>
<g>
	<line class="st1" x1="-560.9" y1="711.2" x2="-560.9" y2="711.2"/>
</g>
<g>
	<line class="st1" x1="-569.9" y1="719.4" x2="-569.9" y2="719.4"/>
</g>
<g>
	<g>
		<g>
			<path class="st2" d="M-588.9,745"/>
		</g>
	</g>
	<path class="st3" d="M-596.7,729.4c-0.1-0.6-0.5-4.2-4.7-4.2h-5.7v3.3h5.7c0.6,0,1.3,0,1.4,1.1"/>
</g>
<g>
	<g>
		<path class="st4" d="M304.7,507.4c1.5,0.9,2.7,2.9,2.7,4.6s-1.2,2.4-2.7,1.5l-24.3-14c-1.5-0.9-2.7-2.9-2.7-4.6s1.2-2.4,2.7-1.5
			L304.7,507.4z"/>
	</g>
	<g>
		<g class="st5">
			
				<linearGradient id="SVGID_1_" gradientUnits="userSpaceOnUse" x1="4.7404" y1="415.1918" x2="55.9299" y2="415.1918" gradientTransform="matrix(1 0 0 -1 0 796.8)">
				<stop  offset="0" style="stop-color:#FFD300"/>
				<stop  offset="1" style="stop-color:#FFC428"/>
			</linearGradient>
			<path class="st6" d="M7.6,354.4c-1.6,0.9-2.9,3.2-2.9,5.1l0.2,69c0,4.4,3.1,6.2,6.9,4l41.1-23.7c1.6-0.9,2.9-3.2,2.9-5.1l-0.2-69
				c0-4.4-3.1-6.2-6.9-4L7.6,354.4z"/>
		</g>
		<g>
			<g>
				<g>
					
						<linearGradient id="SVGID_2_" gradientUnits="userSpaceOnUse" x1="13.106" y1="424.2418" x2="48.406" y2="424.2418" gradientTransform="matrix(1 0 0 -1 0 796.8)">
						<stop  offset="0" style="stop-color:#FFD300"/>
						<stop  offset="1" style="stop-color:#FFC428"/>
					</linearGradient>
					<path class="st7" d="M13.9,379.4c-0.5,0.3-0.9,1-0.9,1.5v3.7c0,0.6,0.4,0.8,0.9,0.5l33.5-19.4c0.5-0.3,0.9-1,0.9-1.5v-3.7
						c0-0.6-0.4-0.8-0.9-0.5L13.9,379.4z"/>
				</g>
				<g>
					
						<linearGradient id="SVGID_3_" gradientUnits="userSpaceOnUse" x1="13.1404" y1="416.2418" x2="48.4404" y2="416.2418" gradientTransform="matrix(1 0 0 -1 0 796.8)">
						<stop  offset="0" style="stop-color:#FFD300"/>
						<stop  offset="1" style="stop-color:#FFC428"/>
					</linearGradient>
					<path class="st8" d="M14,387.4c-0.5,0.3-0.9,1-0.9,1.5v3.7c0,0.6,0.4,0.8,0.9,0.5l33.5-19.4c0.5-0.3,0.9-0.9,0.9-1.5v-3.7
						c0-0.6-0.4-0.8-0.9-0.5L14,387.4z"/>
				</g>
			</g>
			
				<linearGradient id="SVGID_4_" gradientUnits="userSpaceOnUse" x1="25.0234" y1="403.7418" x2="40.0234" y2="403.7418" gradientTransform="matrix(1 0 0 -1 0 796.8)">
				<stop  offset="0" style="stop-color:#FFD300"/>
				<stop  offset="1" style="stop-color:#FFC428"/>
			</linearGradient>
			<path class="st9" d="M27,393.4c-1.1,0.7-2.1,2.3-2.1,3.6v0.8c0,1.3,0.9,1.8,2.1,1.2l10.8-6.3c1.1-0.7,2.1-2.3,2.1-3.6v-0.8
				c0-1.3-0.9-1.8-2.1-1.2L27,393.4z"/>
		</g>
	</g>
	<g>
		
			<linearGradient id="SVGID_5_" gradientUnits="userSpaceOnUse" x1="-540.6733" y1="283.4891" x2="-498.5636" y2="596.4413" gradientTransform="matrix(-1 0 0 -1 -274.8463 796.8)">
			<stop  offset="0" style="stop-color:#1AE5FF"/>
			<stop  offset="0.2589" style="stop-color:#64E8F9"/>
			<stop  offset="0.7043" style="stop-color:#EAEEEE"/>
		</linearGradient>
		<path class="st10" d="M149.7,239.7c-0.1-0.1-0.2-0.1-0.3-0.2c-0.1-0.1-0.3-0.2-0.4-0.2c-0.1-0.1-0.3-0.1-0.4-0.2
			c-0.1-0.1-0.3-0.1-0.4-0.2c-0.1-0.1-0.3-0.1-0.4-0.2h-0.1l0,0c-0.1,0-0.2-0.1-0.3-0.1s-0.3-0.1-0.4-0.1c-0.1,0-0.3-0.1-0.4-0.1
			c-0.2,0-0.3-0.1-0.5-0.1c-0.1,0-0.2,0-0.3,0l0,0h-0.1c-0.2,0-0.3,0-0.5,0s-0.4,0-0.5,0c-0.2,0-0.4,0-0.6,0.1l0,0l0,0
			c-0.2,0-0.5,0.1-0.7,0.2c-0.3,0.1-0.6,0.2-0.8,0.4l-6.9,4c0.5-0.3,1-0.5,1.5-0.6l0,0c0.5-0.1,1.1-0.1,1.7-0.1l0,0
			c0.6,0.1,1.2,0.2,1.9,0.4l0,0c0.7,0.2,1.4,0.5,2.1,1l187.5,108.6l6.9-4L149.7,239.7z"/>
		
			<linearGradient id="SVGID_6_" gradientUnits="userSpaceOnUse" x1="-626.5144" y1="366.1918" x2="-609.3407" y2="366.1918" gradientTransform="matrix(-1 0 0 -1 -274.8463 796.8)">
			<stop  offset="0" style="stop-color:#5155D4"/>
			<stop  offset="1" style="stop-color:#45F7FF"/>
		</linearGradient>
		<path class="st11" d="M351.6,367.8c0-0.2,0-0.3,0-0.5s0-0.3,0-0.5s0-0.3-0.1-0.5c0-0.2,0-0.3-0.1-0.5l0,0l0,0
			c0-0.2-0.1-0.3-0.1-0.5s-0.1-0.4-0.1-0.5c0-0.2-0.1-0.4-0.1-0.5c0-0.2-0.1-0.4-0.1-0.5s-0.1-0.3-0.1-0.4l0,0v-0.1
			c-0.1-0.2-0.1-0.4-0.2-0.5c-0.1-0.2-0.1-0.4-0.2-0.5c-0.1-0.2-0.1-0.3-0.2-0.5s-0.1-0.3-0.2-0.5c-0.1-0.1-0.1-0.3-0.2-0.4l0,0
			v-0.1c-0.1-0.2-0.2-0.3-0.2-0.5c-0.1-0.2-0.2-0.4-0.3-0.5c-0.1-0.2-0.2-0.4-0.3-0.6c-0.1-0.2-0.2-0.4-0.4-0.7c0,0,0-0.1-0.1-0.1
			l-0.1-0.1c-0.2-0.4-0.5-0.8-0.8-1.2c-0.2-0.3-0.4-0.6-0.7-0.9c-0.2-0.2-0.3-0.4-0.5-0.6c-0.1-0.2-0.3-0.3-0.4-0.5
			s-0.3-0.3-0.4-0.5s-0.3-0.3-0.4-0.4l-0.1-0.1l0,0c-0.1-0.1-0.2-0.2-0.3-0.3c-0.1-0.1-0.3-0.3-0.4-0.4c-0.2-0.1-0.3-0.3-0.5-0.4
			s-0.3-0.3-0.5-0.4c-0.1-0.1-0.2-0.1-0.2-0.2c0,0,0,0-0.1,0s-0.1-0.1-0.2-0.1c-0.2-0.1-0.3-0.2-0.5-0.3c-0.1-0.1-0.3-0.2-0.5-0.3
			c-0.1-0.1-0.3-0.2-0.4-0.3c-0.1-0.1-0.3-0.2-0.4-0.3c0,0-0.1,0-0.1-0.1l-6.9,4c0.7,0.4,1.4,0.9,2.1,1.4c0,0,0,0,0.1,0
			c0.7,0.5,1.3,1.1,1.9,1.8l0,0c1.2,1.3,2.3,2.8,3.2,4.4c0,0,0,0.1,0.1,0.1c0.4,0.8,0.9,1.6,1.2,2.4l0,0c0.4,0.8,0.7,1.7,0.9,2.5
			l0,0c0.3,0.9,0.5,1.7,0.6,2.6l0,0c0.1,0.9,0.2,1.7,0.2,2.5l-0.4,130.9c0,0.8-0.1,1.5-0.2,2.2c0,0,0,0,0,0.1
			c-0.1,0.7-0.3,1.3-0.6,1.8l0,0c-0.2,0.5-0.5,0.8-0.8,1.2c-0.1,0.1-0.2,0.2-0.3,0.4c-0.3,0.4-0.7,0.7-1.1,0.9l6.9-4
			c0.4-0.2,0.8-0.6,1.1-0.9c0.1-0.1,0.2-0.2,0.3-0.4c0.1-0.2,0.3-0.3,0.4-0.5s0.3-0.5,0.4-0.7l0,0l0,0c0.1-0.2,0.2-0.3,0.2-0.5
			c0.1-0.2,0.1-0.4,0.2-0.5c0.1-0.2,0.1-0.3,0.1-0.5c0-0.1,0-0.2,0-0.2s0,0,0-0.1s0-0.1,0-0.2c0-0.2,0.1-0.3,0.1-0.5s0-0.3,0.1-0.5
			c0-0.2,0-0.3,0-0.5s0-0.3,0-0.5l0,0l0.4-130.9C351.6,368.1,351.6,367.9,351.6,367.8z"/>
		<g>
			
				<linearGradient id="SVGID_7_" gradientUnits="userSpaceOnUse" x1="132.1404" y1="420.3918" x2="344.8404" y2="420.3918" gradientTransform="matrix(1 0 0 -1 0 796.8)">
				<stop  offset="0" style="stop-color:#714091"/>
				<stop  offset="0.2423" style="stop-color:#8665FF"/>
				<stop  offset="0.5952" style="stop-color:#9978FF"/>
				<stop  offset="0.94" style="stop-color:#B391FF"/>
			</linearGradient>
			<path class="st12" d="M334.5,354.4c5.7,3.3,10.3,11.3,10.3,17.9l-0.4,130.9c0,6.6-4.7,9.2-10.4,5.9L142.4,398.4
				c-5.7-3.3-10.3-11.3-10.3-17.9l0.4-130.9c0-6.6,4.7-9.2,10.4-5.9L334.5,354.4z"/>
		</g>
		<g>
			<path class="st13" d="M322.6,354.1c5.3,3,9.5,10.4,9.5,16.4l-0.3,120.4c0,6-4.3,8.5-9.5,5.4l-167.1-96.4
				c-5.3-3-9.5-10.4-9.5-16.4l0.3-120.4c0-6,4.3-8.5,9.5-5.4L322.6,354.1z"/>
		</g>
		<path class="st13" d="M337.5,458.7L337.5,458.7c-0.8,0-1.4-0.6-1.4-1.4v-42c0-0.8,0.6-1.4,1.4-1.4l0,0c0.8,0,1.4,0.6,1.4,1.4v42
			C338.9,458.1,338.3,458.7,337.5,458.7z"/>
		<g>
			<path class="st3" d="M138.6,324.4c1.6,0.9,3,3.2,3,5.1s-1.3,2.6-3,1.7c-1.6-0.9-3-3.2-3-5.1S137,323.4,138.6,324.4z"/>
		</g>
	</g>
	<g>
		
			<linearGradient id="SVGID_8_" gradientUnits="userSpaceOnUse" x1="234.161" y1="507.1783" x2="245.0555" y2="368.5216" gradientTransform="matrix(1 0 0 -1 0 796.8)">
			<stop  offset="0" style="stop-color:#5155D4"/>
			<stop  offset="1" style="stop-color:#45F7FF"/>
		</linearGradient>
		<path class="st14" d="M253.5,342.2c0.5,1.7,0.9,3.5,1.1,5.2c0.1,1,0.2,2,0.2,3c0,0.3,0,0.6,0,0.9v0.1c0,0.3,0,0.5-0.1,0.8
			c0,0.1,0,0.1,0,0.2c0,0.3-0.1,0.5-0.1,0.8c-0.1,0.3-0.1,0.6-0.1,0.8c-0.1,0.3-0.1,0.6-0.2,0.8v0.1c-0.1,0.2-0.1,0.5-0.2,0.7v0.1
			c-0.1,0.2-0.2,0.4-0.2,0.7c-0.1,0.3-0.2,0.5-0.3,0.7c-0.1,0.3-0.2,0.5-0.3,0.7c0,0,0,0.1-0.1,0.1c-0.1,0.2-0.2,0.4-0.3,0.5
			c0,0,0,0.1-0.1,0.1c-0.1,0.2-0.2,0.4-0.4,0.5c-0.1,0.2-0.3,0.3-0.4,0.5c0,0,0,0-0.1,0.1s-0.3,0.3-0.4,0.4l-0.1,0.1
			c-0.1,0.1-0.3,0.3-0.4,0.4c0,0,0,0-0.1,0.1s-0.3,0.2-0.5,0.3c-0.2,0.1-0.4,0.2-0.5,0.3c0,0-0.1,0-0.1,0.1
			c-0.2,0.1-0.3,0.2-0.5,0.3h-0.1c-0.2,0.1-0.3,0.2-0.5,0.2c-0.1,0.1-0.2,0.1-0.3,0.1c-0.1-6.4-4.5-14.1-10.1-17.3
			c-5.6-3.2-10.1-0.6-10.2,5.8c0,0,0.2,0.3,0.5,0.7c-0.1-0.2-0.3-0.4-0.4-0.6c-0.2-0.4-0.4-0.6-0.6-0.9l-0.1-0.1
			c-0.2-0.3-0.4-0.5-0.5-0.8c0-0.1-0.1-0.1-0.1-0.2c-0.2-0.3-0.3-0.6-0.5-0.9s-0.3-0.6-0.5-0.9c0-0.1-0.1-0.1-0.1-0.2
			c-0.2-0.3-0.3-0.6-0.5-0.9c0-0.1-0.1-0.1-0.1-0.2c-0.1-0.3-0.3-0.6-0.4-0.8c-0.2-0.4-0.3-0.7-0.4-1c0-0.1-0.1-0.1-0.1-0.2
			c-0.1-0.3-0.3-0.6-0.4-0.9c-0.2-0.4-0.3-0.7-0.4-1c0,0,0-0.1-0.1-0.1c-0.1-0.3-0.2-0.6-0.3-0.9c0-0.1,0-0.1-0.1-0.2
			c-0.2-0.6-0.4-1.2-0.6-1.9c0-0.1,0-0.1,0-0.2c-0.1-0.3-0.2-0.6-0.2-0.9c0-0.1,0-0.1,0-0.2c-0.1-0.3-0.1-0.6-0.2-0.9
			c-0.1-0.4-0.1-0.7-0.2-1c0-0.1,0-0.1,0-0.2c0-0.3-0.1-0.6-0.1-0.9c0-0.4-0.1-0.7-0.1-0.9c0-0.1,0-0.1,0-0.2c0-0.3,0-0.6-0.1-0.9
			c0-0.1,0-0.1,0-0.2c0-0.3,0-0.6,0-0.9c0-1,0.1-1.9,0.2-2.8c0.2-1.5,0.6-2.8,1.1-3.9c0.1-0.2,0.2-0.4,0.3-0.7c2.7-4.8,8.4-6,15-2.2
			c5.9,3.4,11.1,10,14,17c0.2,0.5,0.4,0.9,0.6,1.4C253.1,340.8,253.3,341.5,253.5,342.2z M238.5,342.6c3.4,2,6.2,0.4,6.2-3.5
			s-2.7-8.7-6.2-10.7c-3.4-2-6.2-0.4-6.2,3.5C232.4,335.9,235.1,340.7,238.5,342.6"/>
		<g>
			<g>
				<path class="st15" d="M279.6,394.6c1.3,0.7,2.3,2.5,2.3,4v9.7c0,1.5-1,2.1-2.3,1.3l-89-51.4c-1.3-0.7-2.3-2.5-2.3-4v-9.7
					c0-1.5,1-2.1,2.3-1.3L279.6,394.6z"/>
			</g>
			<g>
				<path class="st15" d="M279.5,415.8c1.3,0.7,2.3,2.5,2.3,4v9.7c0,1.5-1,2.1-2.3,1.3l-89-51.4c-1.3-0.7-2.3-2.5-2.3-4v-9.7
					c0-1.5,1-2.1,2.3-1.3L279.5,415.8z"/>
			</g>
		</g>
	</g>
	
		<linearGradient id="SVGID_9_" gradientUnits="userSpaceOnUse" x1="228.5404" y1="401.6246" x2="228.5404" y2="353.2935" gradientTransform="matrix(1 0 0 -1 0 796.8)">
		<stop  offset="0" style="stop-color:#7F5EFF"/>
		<stop  offset="0.2423" style="stop-color:#8665FF"/>
		<stop  offset="0.5952" style="stop-color:#9978FF"/>
		<stop  offset="0.94" style="stop-color:#B391FF"/>
	</linearGradient>
	<path class="st16" d="M239.8,420c2.4,1.4,4.3,4.7,4.3,7.5v1.8c0,2.7-1.9,3.9-4.3,2.5l-22.6-13.1c-2.4-1.4-4.3-4.7-4.3-7.5v-1.8
		c0-2.7,2-3.8,4.3-2.5L239.8,420z"/>
	<g>
		
			<linearGradient id="SVGID_10_" gradientUnits="userSpaceOnUse" x1="-108.9375" y1="350.5264" x2="-79.8595" y2="375.8715" gradientTransform="matrix(-1 0 0 -1 61.0993 796.8)">
			<stop  offset="0" style="stop-color:#714091"/>
			<stop  offset="0.2589" style="stop-color:#714091"/>
			<stop  offset="0.7043" style="stop-color:#EAEEEE"/>
		</linearGradient>
		<path class="st17" d="M157.7,418.8c0,0-7.7,4.4-8.9,24.7c1,3.7,6.9,5.7,11.4,2.8C164.8,443.2,160.1,422.2,157.7,418.8z"/>
		<path class="st18" d="M196.8,440.6c0,0,17.6-7.8,19.9-9.2c2.4-1.3,4.1-6.2,5-7.2s4.9-3.4,4.7-2.4c-0.1,1-2.2,3-2.2,3
			s1.5,2.5,1.8,4.1s-1.9,4.9-3.1,5.8c-1.2,0.9-4,1.2-4,1.2s-14.3,9.6-16.7,9.8C199.9,445.8,196.5,444.5,196.8,440.6z"/>
		
			<linearGradient id="SVGID_11_" gradientUnits="userSpaceOnUse" x1="46.0562" y1="255.7918" x2="117.1344" y2="255.7918" gradientTransform="matrix(1 0 0 -1 94.1842 796.8)">
			<stop  offset="0" style="stop-color:#5155D4"/>
			<stop  offset="1" style="stop-color:#45F7FF"/>
		</linearGradient>
		<ellipse class="st19" cx="175.7" cy="541" rx="35.5" ry="21.1"/>
		<path class="st20" d="M161,536.4c0,0-0.5,3.3,0.2,4.7c0.6,1.2,3,2.1,4.7,0.9c1.7-1.2,4.6-4.3,4.6-4.3s4.9-2.6,5.3-4
			c0.5-1.4-1.2-2.6-2.6-2.3c-1.4,0.3-5.3,2.7-7.2,2.7S161.6,534.7,161,536.4z"/>
		<path class="st20" d="M156,465.1c0,0,4.3,70.3,4.8,72.3s6.1,3.2,7.1,0c0.7-2.1,2.3-67.1,2.3-67.1L156,465.1z"/>
		<path class="st20" d="M175.1,540.6c-0.2,0.2-0.4,0.5-0.4,0.8c0,1,0,3.1,0.6,4c0.7,1.1,3,2.3,5.3,1c2-1.1,8-5.6,9.3-6.6
			c0.7-0.6,1.1-1.4,1.2-1.9c0.1-0.5-0.1-1.1-0.6-1.3c-0.9-0.4-2.3-0.9-3.6-0.4c-2,0.7-4.5,2.9-7.3,2.7
			C177.5,538.8,175.8,540,175.1,540.6z"/>
		<path class="st20" d="M184.5,465.9c-0.3-2.9-3.8-3.9-7-2.9c-6.1-0.3-15.7-0.1-16,4.7c-0.5,7.1,2.8,12.1,6,15.5
			c2.4,2.5,3.9,7.4,4.6,9.7c0.6,18.6,1.8,44.9,2.6,47.5c1.2,4.1,7.4,3.9,7.6-0.1C183.5,527,184.5,465.9,184.5,465.9z"/>
		
			<linearGradient id="SVGID_12_" gradientUnits="userSpaceOnUse" x1="-105.4816" y1="283.838" x2="-112.0308" y2="420.583" gradientTransform="matrix(-1 0 0 -1 61.0993 796.8)">
			<stop  offset="0" style="stop-color:#713491"/>
			<stop  offset="0.3673" style="stop-color:#714091"/>
			<stop  offset="0.8225" style="stop-color:#EAEEEE"/>
		</linearGradient>
		<path class="st21" d="M184.5,468.1c-0.7,3.6-11,5.4-17,4.4s-12.5-3.9-12.3-10.9c0,0-0.9-27.9-0.9-33.3c0-5.5,3.4-9.5,3.4-9.5
			s3.4-3.8,13.9-1.7c0,0,8.6,1.9,12.6,8.3c0,0,2.7,7,1.8,21.6C185.2,461.6,184.5,468.1,184.5,468.1z"/>
		<path class="st22" d="M163.4,409.4c0,0,0.9,5.3,0,7.8c-0.2,1.2,5.2,5.3,9.9,4.3c2.7-0.6,2.6-2,2.6-2s-2.3-3.8-2-7.5
			C174.2,408.3,166.6,408.6,163.4,409.4z"/>
		<g>
			<circle class="st18" cx="168.7" cy="398.6" r="12.6"/>
			<path class="st18" d="M181.2,399.5c0,0,0.2,12.6-2.6,15.1c-2.7,2.5-6.9-2.4-13.7-4c-6.7-1.7,5.5-14.8,5.5-14.8L181.2,399.5z"/>
		</g>
		<g>
			
				<linearGradient id="SVGID_13_" gradientUnits="userSpaceOnUse" x1="-126.1066" y1="286.2974" x2="-132.6558" y2="423.0421" gradientTransform="matrix(-1 0 0 -1 61.0993 796.8)">
				<stop  offset="0" style="stop-color:#713491"/>
				<stop  offset="0.3673" style="stop-color:#714091"/>
				<stop  offset="0.8225" style="stop-color:#EAEEEE"/>
			</linearGradient>
			<path class="st23" d="M180.2,422.4c0,0,2.8-0.8,5.9,3.7c3.1,4.5,7.7,10.4,9.8,11.4c2.2,1,5.1-1,6.3-1s4.3,5.5,3.1,8.3
				s-8.8,4.1-10.8,4.1s-14.7-7.7-16.5-12C176.3,432.6,173.5,422.6,180.2,422.4z"/>
			
				<linearGradient id="SVGID_14_" gradientUnits="userSpaceOnUse" x1="-141.1767" y1="335.6676" x2="-144.5822" y2="361.6018" gradientTransform="matrix(-1 0 0 -1 61.0993 796.8)">
				<stop  offset="0" style="stop-color:#713491"/>
				<stop  offset="0.3673" style="stop-color:#714091"/>
				<stop  offset="0.8225" style="stop-color:#EAEEEE"/>
			</linearGradient>
			<path class="st24" d="M200.4,437.2c0,0,0.8-2.2,3.5-2.4c2.8-0.2,5.9,5.1,5.7,8.1c-0.2,2.9-4.5,4.5-5.5,3.7
				C203.2,445.8,205.2,443.8,200.4,437.2z"/>
		</g>
		<path class="st25" d="M176.2,388c0,0,4.5,1,5.9,7.9c-0.6,2.9-4.7,0.6-6.3,4.5s-2.6,5.1-2.6,5.1l-1-0.4c0,0,0-3.1-1.4-3.1
			s-1.8,3.7-1,5.3c0.8,1.6,2.6,2.4,2.6,2.4s-2,3.3-2.9,3.7c-1,0.4-4.5-0.4-5.9-1s-3.9-3.3-5.9-6.5c-2-3.1-3.7-8.6-2.6-12.4
			c1.2-3.7,3.9-4.7,3.9-4.7s1.6-2.2,4.3-3.1C166.2,384.7,171.3,384.3,176.2,388z"/>
		<linearGradient id="SVGID_15_" gradientUnits="userSpaceOnUse" x1="162.0404" y1="418.5468" x2="178.3404" y2="418.5468">
			<stop  offset="0" style="stop-color:#714B91"/>
			<stop  offset="1" style="stop-color:#715991"/>
		</linearGradient>
		<path class="st26" d="M178.3,419.7l-3.3-1.8c0,0-8.4-0.8-11.4-2.8l-1.6,2.2c0,0,2.1,4.1,7.5,4.6s7.9-1.6,7.9-1.6L178.3,419.7z"/>
	</g>
	<g class="st27">
		<g>
			<path class="st4" d="M326.1,320.1v3.7c0,2.2-2.4,3.5-4.2,2.4l-17.4-10.1c-0.9-0.5-1.4-1.4-1.4-2.4V310c0-2.2,2.4-3.5,4.2-2.4
				l17.4,10.1C325.5,318.2,326.1,319.1,326.1,320.1z"/>
		</g>
		<g>
			<path class="st4" d="M381,370.1v3.7c0,2.2-2.4,3.5-4.2,2.4l-72.3-41.8c-0.9-0.5-1.4-1.4-1.4-2.4v-3.7c0-2.2,2.4-3.5,4.2-2.4
				l72.3,41.8C380.5,368.2,381,369.1,381,370.1z"/>
		</g>
		<g class="st28">
			<path class="st4" d="M351.1,389.6v3.7c0,2.2-2.4,3.5-4.2,2.4l-42.5-24.5c-0.9-0.5-1.4-1.4-1.4-2.4v-3.7c0-2.2,2.4-3.5,4.2-2.4
				l42.5,24.5C350.5,387.6,351.1,388.6,351.1,389.6z"/>
		</g>
		<g>
			<path class="st4" d="M369.7,382v3.7c0,2.2-2.4,3.5-4.2,2.4l-61.1-35.3c-0.9-0.5-1.4-1.4-1.4-2.4v-3.7c0-2.2,2.4-3.5,4.2-2.4
				l61.1,35.3C369.2,380,369.7,381,369.7,382z"/>
		</g>
	</g>
	<g class="st27">
		<g>
			<path class="st4" d="M35.9,293.9v1.9c0,1.1,1.2,1.8,2.2,1.3l8.9-5.2c0.4-0.3,0.7-0.7,0.7-1.3v-1.9c0-1.1-1.2-1.8-2.2-1.3
				l-8.9,5.2C36.2,292.9,35.9,293.4,35.9,293.9z"/>
		</g>
		<g>
			<path class="st4" d="M7.6,319.6v1.9c0,1.1,1.2,1.8,2.2,1.3L47,301.3c0.5-0.3,0.7-0.7,0.7-1.3v-1.9c0-1.1-1.2-1.8-2.2-1.3
				L8.3,318.3C7.9,318.6,7.6,319.1,7.6,319.6z"/>
		</g>
		<g class="st28">
			<path class="st4" d="M23,329.6v1.9c0,1.1,1.2,1.8,2.2,1.3l21.9-12.6c0.5-0.3,0.7-0.7,0.7-1.3V317c0-1.1-1.2-1.8-2.2-1.3
				l-21.9,12.6C23.3,328.6,23,329.1,23,329.6z"/>
		</g>
		<g>
			<path class="st4" d="M13.4,325.7v1.9c0,1.1,1.2,1.8,2.2,1.3L47,310.7c0.5-0.3,0.7-0.7,0.7-1.3v-1.9c0-1.1-1.2-1.8-2.2-1.3
				l-31.3,18.2C13.7,324.7,13.4,325.2,13.4,325.7z"/>
		</g>
	</g>
	<g>
		
			<linearGradient id="SVGID_16_" gradientUnits="userSpaceOnUse" x1="167.1304" y1="429.9821" x2="194.7876" y2="482.7036" gradientTransform="matrix(1 0 0 -1 0 796.8)">
			<stop  offset="0" style="stop-color:#CC68FF"/>
			<stop  offset="1" style="stop-color:#FB8E31"/>
		</linearGradient>
		<circle class="st29" cx="170.4" cy="360.5" r="15"/>
		<polygon class="st3" points="169.1,367.4 162.9,362.8 165.1,359.7 168.4,362.1 175,353.7 178,356.1 		"/>
	</g>
	<g class="st30">
		<path class="st4" d="M150.9,294.1c3.5,2,6.4,7,6.4,11.1s-2.9,5.7-6.4,3.7l-58.2-33.6c-3.5-2-6.4-7-6.4-11.1s2.9-5.7,6.4-3.7
			L150.9,294.1z"/>
	</g>
	<g class="st30">
		<path class="st4" d="M371.7,472.2c2.5,1.4,4.4,4.9,4.4,7.7c0,2.8-2,4-4.5,2.6L331.2,459c-2.5-1.4-4.4-4.9-4.4-7.7
			c0-2.8,2-4,4.5-2.5L371.7,472.2z"/>
	</g>
	<g>
		
			<linearGradient id="SVGID_17_" gradientUnits="userSpaceOnUse" x1="474.7888" y1="333.3718" x2="529.4791" y2="382.5537" gradientTransform="matrix(1 0 0 -1 -454.1494 796.8)">
			<stop  offset="0" style="stop-color:#FFD300"/>
			<stop  offset="1" style="stop-color:#FFC428"/>
		</linearGradient>
		<path class="st31" d="M92.6,430.1c1.5,0.9,1.5,2.3,0,3.1l-49.7,28.9c-1.5,0.9-3.9,0.9-5.4,0L6.8,444.4c-1.5-0.9-1.5-2.3,0-3.1
			l49.7-28.9c1.5-0.9,3.9-0.9,5.4,0L92.6,430.1z"/>
	</g>
	<g>
		<g class="st32">
			
				<linearGradient id="SVGID_18_" gradientUnits="userSpaceOnUse" x1="49.0526" y1="284.0043" x2="122.0282" y2="284.0043" gradientTransform="matrix(1 0 0 -1 0 796.8)">
				<stop  offset="0" style="stop-color:#5155D4"/>
				<stop  offset="1" style="stop-color:#45F7FF"/>
			</linearGradient>
			<path class="st33" d="M59.8,497.8c-14.3,8.3-14.4,21.6-0.2,29.9c14.2,8.3,37.3,8.3,51.6,0s14.4-21.6,0.2-29.9
				C97.2,489.6,74.1,489.6,59.8,497.8z"/>
		</g>
		<g>
			<path class="st34" d="M77.2,516.6c0,0-6.6,1.7-9.1,1.7s0,2.6,4.3,2.9c4.3,0.3,8.3,0.6,9.1-0.6c0.9-1.1-0.2-4.4-0.2-4.4
				L77.2,516.6z"/>
			<path class="st34" d="M95.5,510.6c0,0-6.6,1.7-9.1,1.7c-2.6,0,0,2.6,4.3,2.9s8.3,0.6,9.1-0.6c0.9-1.1-0.2-4.4-0.2-4.4L95.5,510.6
				z"/>
			<path class="st35" d="M96.9,439.6c0,0,2.4,65.4,2.8,72.2c0,0-1.9,1.5-4.2,0.8c0,0-7.7-42.9-8.9-53.9c-1.1-11.1-3-14.9-3-14.9
				L96.9,439.6z"/>
			<path class="st35" d="M72.5,443.4c0,0-2.3,37.7,4.6,74.3c0,0,2.3,1.1,4.2-1.5c0,0,4.2-64,5.3-73.2
				C87.8,433.9,75.6,441.5,72.5,443.4z"/>
			<path class="st35" d="M82.8,472.4c0,0,3.8-10.7,7.2-16.4c3.4-5.7,2.7-14.1,2.7-14.1l-13,1.1L82.8,472.4z"/>
			<path class="st18" d="M69.6,406.1l-11.3-5.5c0,0-3.4-3.4-4.3-4.1c-0.9-0.7-6.5-2.1-7.6-1.9c-1,0.2-2.9,1.7-2.4,2.1
				c0.5,0.3,5.3,2.9,5.5,3.9s-1.7,2.4-1,3.1s2.2-0.7,3.3-0.7c1,0,3.9,1.4,3.9,1.4l11,6.4L69.6,406.1z"/>
			<g>
				<path class="st36" d="M93.8,395.1c0,0-2.1-2.3-5.5,2.1s-6.3,10.9-11.1,10.3c-4.8-0.6-12.6-4.4-12.6-4.4s-3.4,2.3-2.9,5.7
					c0,0,11.1,8.2,18.5,7.8c7.4-0.4,15.4-8,17.2-13.3C99.1,398,93.8,395.1,93.8,395.1z"/>
			</g>
			<path class="st36" d="M70.9,443.4c0.7,3.4,10.4,5.1,16.1,4.2s11.8-3.7,11.6-10.3c0,0,0.9-26.4,0.9-31.6s-3.3-9-3.3-9
				s-3.2-3.6-13.2-1.6c0,0-8.2,1.8-11.9,7.8c0,0-2.6,6.6-1.7,20.5C70.2,437.2,70.9,443.4,70.9,443.4z"/>
			<path class="st22" d="M90.8,387.7c0,0-0.9,5,0,7.4c0.1,1.2-4.9,5-9.4,4c-2.6-0.6-2.5-1.9-2.5-1.9s2.2-3.6,1.9-7.1
				C80.6,386.7,87.8,387,90.8,387.7z"/>
			<g>
				<circle class="st18" cx="85.9" cy="377.6" r="11.9"/>
				<path class="st18" d="M74,378.4c0,0-0.1,11.9,2.5,14.3s6.6-2.3,13-3.7c6.4-1.6-5.2-14-5.2-14L74,378.4z"/>
			</g>
			<g>
				<path class="st18" d="M59.2,417.4c0,0-16.7-7.4-18.9-8.7c-2.2-1.3-3.9-5.9-4.8-6.9c-0.8-1-4.6-3.2-4.5-2.2s2.1,2.8,2.1,2.8
					s-1.4,2.4-1.7,3.9s1.8,4.6,2.9,5.5c1.1,0.8,3.8,1.1,3.8,1.1s13.6,9.1,15.8,9.2C56.3,422.3,59.5,421,59.2,417.4z"/>
				<path class="st36" d="M74.1,402.3c0,0-2.1-2.3-5.5,2.1s-6.3,10.9-11.1,10.3s-12.6-4.4-12.6-4.4s-3.4,2.3-2.9,5.7
					c0,0,11.1,8.2,18.5,7.8s15.4-8,17.2-13.3C79.4,405.1,74.1,402.3,74.1,402.3z"/>
			</g>
			<g>
				<path class="st25" d="M78.7,367.5c0,0-4.3,0.9-5.6,7.4c0.6,2.8,4.5,0.6,6,4.3c1.5,3.7,2.4,4.8,2.4,4.8l0.9-0.4c0,0,0-3,1.3-3
					s1.7,3.5,0.9,5c-0.7,1.5-2.4,2.2-2.4,2.2s1.9,3.2,2.8,3.5c0.9,0.4,4.3-0.4,5.6-0.9c1.3-0.6,3.7-3.2,5.6-6.1
					c1.9-3,3.5-8.2,2.4-11.7s-3.7-4.5-3.7-4.5s-1.5-2-4.1-3C88.2,364.4,83.4,364,78.7,367.5z"/>
				<path class="st25" d="M77.8,375.4c0,0,2.9,3.4,1.4,8.3c-1.4,4.9,0.6,4.9,2.6,11.2c2,6.3-3.7,13.7,1.7,22.9
					c5.4,9.1,20,8,26.6-1.1s-3.7-15.7-4-24s6.3-13.2-1.1-18.9c-7.4-5.7-10.6-12-19.7-9.4C76.1,366.8,73.8,371.4,77.8,375.4z"/>
			</g>
		</g>
	</g>
</g>
</svg>
