<?xml version="1.0" encoding="utf-8"?>
<!-- Generator: Adobe Illustrator 19.0.0, SVG Export Plug-In . SVG Version: 6.00 Build 0)  -->
<svg version="1.1" id="Layer_1" xmlns="http://www.w3.org/2000/svg" xmlns:xlink="http://www.w3.org/1999/xlink" x="0px" y="0px"
	 viewBox="-424 175.6 693.3 417.6" style="enable-background:new -424 175.6 693.3 417.6;" xml:space="preserve">
<style type="text/css">
	.st0{fill:#00AB97;}
	.st1{fill:none;}
	.st2{fill:#52555B;}
	.st3{fill:#FFFFFF;}
	.st4{fill:#3C1E6C;}
	.st5{fill-rule:evenodd;clip-rule:evenodd;fill:#B07EFF;}
	.st6{fill-rule:evenodd;clip-rule:evenodd;fill:#D2BBFF;}
	.st7{fill-rule:evenodd;clip-rule:evenodd;fill:#FFFFFF;}
	.st8{fill-rule:evenodd;clip-rule:evenodd;fill:#FFC428;}
	.st9{fill-rule:evenodd;clip-rule:evenodd;fill:#FFC100;}
	.st10{fill-rule:evenodd;clip-rule:evenodd;fill:#64A1F4;}
	.st11{fill-rule:evenodd;clip-rule:evenodd;fill:#448DE8;}
	.st12{fill-rule:evenodd;clip-rule:evenodd;fill:#7191FF;}
	.st13{fill-rule:evenodd;clip-rule:evenodd;fill:#4B3E8B;}
	.st14{fill-rule:evenodd;clip-rule:evenodd;fill:#70C9EB;}
</style>
<g>
	<path class="st0" d="M-243.5,356.6c0-0.1-0.1-0.3-0.1-0.4v0.4H-243.5z"/>
</g>
<g>
	<path class="st0" d="M-243.6,364.1c0-0.1,0.1-0.2,0.1-0.4h-0.1V364.1z"/>
</g>
<g>
	<line class="st1" x1="-253.5" y1="343.8" x2="-253.5" y2="343.8"/>
</g>
<g>
	<line class="st1" x1="-259.5" y1="348.9" x2="-259.5" y2="348.9"/>
</g>
<g>
	<line class="st1" x1="-256.9" y1="334.4" x2="-256.9" y2="334.4"/>
</g>
<g>
	<line class="st1" x1="-265.9" y1="342.6" x2="-265.9" y2="342.6"/>
</g>
<g>
	<g>
		<g>
			<path class="st2" d="M-284.9,368.2"/>
		</g>
	</g>
	<path class="st3" d="M-292.7,352.6c-0.1-0.6-0.5-4.2-4.7-4.2h-5.7v3.3h5.7c0.6,0,1.3,0,1.4,1.1"/>
</g>
<g>
	<path class="st4" d="M-344.6,303.1c-30.7,9.9-66.2,25.3-71.9,57.1c-3.7,20.7,8.3,42.3,26.4,53c8.8,5.2,19.7,8.9,24.3,18
		c7.2,14.2-5.7,30.6-19.3,38.8c-13.6,8.3-30.2,14.8-36.4,29.5c-4.1,9.7-2.5,21,1.6,30.6c14.8,35.6,58.1,51.1,96.6,49.2
		c38.5-1.9,75-16.9,112.7-24.6c129.6-26.5,265.5,33.7,394.9,6.1c20.1-4.3,40.4-11,56-24.5c17.5-15.2,27.5-38.1,29-61.3
		c1.4-22.1-6.4-47-26.2-56.9c-11.6-5.8-25.4-5.6-37.9-2.4c-8,2-15.9,5.2-24.1,5.2c-8.3,0.1-17.4-4.1-19.7-12
		c-2.5-8.3,3.2-16.9,9.8-22.6c13.4-11.5,31.3-17.3,43.4-30.1c11.7-12.3,16.6-30.7,12.6-47.3c-4-16.5-16.7-30.7-32.7-36.4
		c-40.8-14.5-85.3,25-127.1,13.4c-3.1-0.9-6.4-2.2-8-5c-1.6-2.7-1.2-6.1-0.3-9.1c5.1-16.8,25-27.5,25.9-45.1
		c0.5-9.5-5.2-18.5-12.3-24.9C23.6,158.3-47.2,210.4-97,226.9C-178.9,253.9-262.4,276.6-344.6,303.1z"/>
	<g>
		<g>
			<g>
				<path class="st3" d="M-164.8,432C-164.8,432-164.8,432-164.8,432l14.9-8.8c0,0,0,0,0,0l-6.7-11.3c0,0,0,0,0,0l-14.9,8.8
					c0,0,0,0,0,0l-39.1-66.1c0,0,0,0,0,0l-15.5,9.2c0,0,0,0,0,0l-7.3,96c0,0,0,0,0,0l5.6,9.5c0,0,0,0,0,0l49.4-29.2c0,0,0,0,0,0
					l17.1,29c0,0,0,0,0,0l13.6-8c0,0,0,0,0,0L-164.8,432z M-219.9,449.3C-219.9,449.3-219.9,449.3-219.9,449.3l-0.2-0.3c0,0,0,0,0,0
					l4.6-51.6c0,0,0,0,0,0l-0.4-20.9c0,0,0,0,0,0l0.5-0.3c0,0,0,0,0,0l9.4,17c0,0,0,0,0,0l21,35.5c0,0,0,0,0,0L-219.9,449.3z"/>
			</g>
		</g>
		<g>
			<g>
				<path class="st3" d="M102.7,384.1C102.7,384.1,102.7,384.1,102.7,384.1l-15.4-9.5c0,0,0,0,0,0L-1.1,413c0,0,0,0,0,0l-5.8,9.4
					c0,0,0,0,0,0l48.9,30.1c0,0,0,0,0,0l-17.6,28.7c0,0,0,0,0,0l13.4,8.3c0,0,0,0,0,0l17.6-28.7c0,0,0,0,0,0l14.7,9.1c0,0,0,0,0,0
					l6.9-11.2c0,0,0,0,0,0l-14.7-9.1c0,0,0,0,0,0L102.7,384.1z M49,441.3C49,441.3,49,441.3,49,441.3l-34.5-21.2c0,0,0,0,0,0
					l0.2-0.3c0,0,0,0,0,0l47.8-20c0,0,0,0,0,0l18.3-10.2c0,0,0,0,0,0l0.5,0.3c0,0,0,0,0,0l-10.6,16.2c0,0,0,0,0,0L49,441.3z"/>
			</g>
		</g>
	</g>
	<g>
		<circle class="st5" cx="-77.3" cy="405.4" r="60"/>
		<path class="st6" d="M-136.9,397.9c17.8,2.5,47.7-10.2,57.3-12c19.5-3.8,39.5,0.7,59.4,1.4c-1.4-4.3-3.2-8.5-5.5-12.3
			c-7.3,0.3-15-1-22.4-1.2c-14-0.4-27.9,3.3-41.9,2.4c-6.5-0.4-21-6.1-34.2-8.3C-131,376.3-135.5,386.7-136.9,397.9z"/>
		<path class="st6" d="M-77.3,345.4c-6.1,0-12,0.9-17.5,2.6c7.5,4.3,22.6,5.8,26.1,6.3c6.3,0.8,13.1,1.1,18.5-2.2
			c0.1,0,0.1-0.1,0.2-0.1C-58.2,347.8-67.5,345.4-77.3,345.4z"/>
		<path class="st6" d="M-17.3,406.2c-17.3-4.4-35.6-4.7-53-0.9c-9.5,2.1-18.6,5.3-28.1,7.6c-11.8,2.9-24,4.3-36.2,4.2
			c-0.5,0-1,0-1.6,0c2.4,12,8.3,22.7,16.7,31c14.4-5.1,28.2-11.8,41.1-19.9c11.3-7.1,22.6-15.6,35.9-16.8c8.2-0.8,16.4,1.4,24.5,3.1
			C-17.6,411.8-17.4,409.1-17.3,406.2z"/>
		<path class="st6" d="M-20.5,424.7c-8.1-1.2-22.7,6-26.3,9c-3.2,2.7-5.9,6-9.3,8.3c-4.4,3-9.6,4.3-14.7,5.6
			c-10.3,2.7-20.6,5.6-30.8,8.9c-1.3,0.4-2.7,1-3.3,2.1c8.3,4.3,17.6,6.7,27.6,6.7c7,0,13.6-1.2,19.9-3.4c6.2-8.9,10-20.4,19.8-24.6
			c1.7-0.7,7.5-1.5,12.8-2.9C-23.1,431.4-21.7,428.2-20.5,424.7z"/>
	</g>
	<path class="st7" d="M101.9,583.9C87,504.1,17,443.7-67.1,443.7c-84.1,0-154.1,60.4-169,140.2H101.9z"/>
	<ellipse transform="matrix(0.9914 0.1307 -0.1307 0.9914 70.062 11.8232)" class="st8" cx="-55" cy="539.6" rx="19.6" ry="11"/>
	<circle class="st9" cx="-192.5" cy="303.1" r="22.2"/>
	<path class="st10" d="M-192.5,280.9c-3.9,0-7.6,1-10.9,2.8c0.2,0.3,0.3,0.5,0.5,0.7c2.2,2.3,7.6,2.4,10.6,2.5
		c4.4,0.2,8.8-0.4,12.9-1.7C-183.1,282.5-187.6,280.9-192.5,280.9z"/>
	<path class="st10" d="M-175.6,292.8c0.7-0.3,1.5-0.5,2.1-0.9c-0.6-1-1.2-1.9-1.9-2.8c-2.2,1-4.4,2-6.6,3c-1.7,0.8-3.4,1.5-5.3,2
		c-2.7,0.7-5.5,0.7-8.3,0.7c-5.8,0-11.4-0.6-17.1-1.2c-1.4,2.9-2.2,6.1-2.2,9.5c0,1.6,0.2,3.2,0.5,4.7c1.2-0.5,2.2-1.2,3.3-1.9
		c2.8-1.8,6-2.9,9.2-4C-193,298.9-184.3,295.8-175.6,292.8z"/>
	<path class="st10" d="M-172.1,294.4c-1.7,1.5-3,3.6-4.9,5c-2,1.5-4.2,2.8-6.5,3.7c-1.6,0.6-3.4,1.1-4.9,1.9
		c-0.6,0.3-1.2,0.7-1.3,1.3c-0.3,1.1,1.1,2,2.2,2.2c2.2,0.5,4.6,0.4,6.9,0.3c2.7-0.1,5.5-0.2,8.2-0.4c0.5,0,1-0.1,1.5-0.1
		c0.4-1.7,0.7-3.5,0.7-5.3C-170.3,300-171,297-172.1,294.4z"/>
	<path class="st10" d="M-192,302.5c-3.9,0.8-7.8,2-11.5,3.7c-2.4,1.1-4.8,2.5-7.4,3.2c-0.7,0.2-1.8,0.3-2.9,0.4
		c1.3,4.1,3.8,7.7,7.1,10.4c0.2-0.3,0.5-0.5,0.7-0.8c3.3-4.4,5.6-10,10.4-12.7c0.9-0.5,1.8-0.9,2.6-1.6
		C-192.3,304.5-191.7,303.5-192,302.5z"/>
	<path class="st10" d="M-172.5,312.6c-0.3,0-0.5,0-0.7,0c-4.7,0.3-9.5,0.5-14.2,0.8c-2.9,0.2-6.1,0.4-8.5,2
		c-1.9,1.3-3.1,3.3-4.3,5.2c-0.4,0.7-1.1,1.6-1.8,2.5c2.7,1.3,5.8,2.1,9,2.2c0.6-0.7,1.1-1.5,1.7-2.3c3.2-4.2,8.1-7,13.4-7.6
		c1.4-0.1,2.8-0.2,4.2-0.3C-173.4,314.3-172.9,313.5-172.5,312.6z"/>
	<path class="st11" d="M-172.2,311.9c0.6-1.3,1-2.7,1.3-4.1c-5.7,2-12.5,3.8-19.7,5.2c-7.3,1.4-14.3,2.3-20.4,2.5
		c0.8,1.2,1.7,2.3,2.8,3.3c5.6-0.4,11.9-1.2,18.3-2.4C-183.5,315.2-177.5,313.7-172.2,311.9z"/>
	<g>
		<path class="st3" d="M-214.3,317.3c-8,0-14.4-1.3-15.2-5.1c-0.7-3.6,4-7.3,14-11.1c0.9-0.3,1.9,0.1,2.2,1c0.3,0.9-0.1,1.9-1,2.2
			c-10.1,3.8-11.9,6.7-11.8,7.2c0.4,1.9,12.9,4.1,35.6-0.3c9.5-1.8,18.3-4.4,24.7-7.2c7.3-3.2,8.5-5.4,8.4-5.8
			c-0.1-0.5-3-2.6-14.3-2.3c-0.9,0-1.8-0.7-1.8-1.7c0-1,0.7-1.8,1.7-1.8c11.1-0.3,17.2,1.4,17.9,5.1c0.6,3.2-2.8,6.3-10.5,9.7
			c-6.6,2.9-15.6,5.5-25.4,7.4C-196.5,316-206.2,317.3-214.3,317.3z"/>
	</g>
	<g>
		<circle class="st12" cx="151" cy="344.5" r="17.9"/>
		<path class="st8" d="M159.5,328.7c-2.8-1.5-5.8-2.2-8.8-2.1c0,0.3,0,0.5,0.1,0.7c0.7,2.5,4.5,4.6,6.5,5.8c3,1.8,6.3,3.1,9.8,3.7
			C165.6,333.5,163,330.6,159.5,328.7z"/>
		<path class="st8" d="M167,343.7c0.6,0.1,1.2,0.2,1.9,0.2c0-0.9-0.1-1.8-0.3-2.7c-1.9-0.1-3.9-0.3-5.8-0.4c-1.5-0.1-3-0.2-4.5-0.6
			c-2.2-0.5-4.2-1.6-6.1-2.7c-4.1-2.2-7.8-4.8-11.6-7.4c-2.1,1.5-3.9,3.5-5.2,5.9c-0.6,1.1-1.1,2.3-1.4,3.5c1,0.1,2,0,3-0.1
			c2.7-0.2,5.4,0.3,8.1,0.7C152.3,341.3,159.7,342.5,167,343.7z"/>
		<path class="st8" d="M168.8,346.1c-1.8,0.4-3.5,1.4-5.4,1.7c-2,0.3-4,0.4-6,0.1c-1.4-0.2-2.8-0.5-4.2-0.5c-0.5,0-1.1,0-1.5,0.4
			c-0.6,0.7,0,1.8,0.7,2.4c1.4,1.2,3.1,2.1,4.8,2.9c2,1,4,1.9,5.9,2.9c0.4,0.2,0.7,0.3,1.1,0.5c1-1.1,1.8-2.2,2.5-3.5
			C167.9,350.8,168.6,348.4,168.8,346.1z"/>
		<path class="st8" d="M151.7,344.3c-3.1-1-6.3-1.5-9.6-1.7c-2.2-0.1-4.3-0.1-6.5-0.5c-0.6-0.1-1.4-0.5-2.2-0.9
			c-0.7,3.4-0.3,6.9,1,10.1c0.3-0.1,0.5-0.2,0.8-0.3c4-1.9,7.8-4.9,12.2-5c0.8,0,1.6,0.1,2.4-0.1C150.7,345.6,151.5,345,151.7,344.3
			z"/>
		<path class="st8" d="M161.6,358.9c-0.2-0.1-0.3-0.2-0.5-0.3c-3.5-1.6-6.9-3.3-10.4-4.9c-2.1-1-4.4-2.1-6.8-1.8
			c-1.8,0.2-3.5,1.1-5.1,2c-0.5,0.3-1.4,0.7-2.3,1.1c1.4,2,3.3,3.7,5.5,5c0.7-0.3,1.4-0.6,2-1c3.9-1.8,8.4-1.8,12.4-0.2
			c1,0.4,2,1,3.1,1.4C160.3,359.8,161,359.3,161.6,358.9z"/>
	</g>
	<path class="st7" d="M-198.9,511.6l-22.7,43.1l-8.8-4.7c-1.9-1-2.7-3.4-1.6-5.3l19.1-36.2c1-1.9,3.4-2.7,5.3-1.6L-198.9,511.6z"/>
	<path class="st7" d="M86,553.8l-13.6-34l9.3-3.7c2-0.8,4.3,0.2,5.1,2.2L97.5,545c0.8,2-0.2,4.3-2.2,5.1L86,553.8z"/>
	<path class="st7" d="M-124.7,458.7l-39.6,28.4l-5.8-8.1c-1.3-1.8-0.9-4.2,0.9-5.5l33.2-23.8c1.8-1.3,4.2-0.9,5.5,0.9L-124.7,458.7z
		"/>
	<path class="st7" d="M54.8,505.8l-38.9-29.4l6-8c1.3-1.7,3.8-2.1,5.5-0.8L60,492.3c1.7,1.3,2.1,3.8,0.8,5.5L54.8,505.8z"/>
	<g>
		
			<ellipse transform="matrix(0.8917 -0.4527 0.4527 0.8917 -242.433 -12.4518)" class="st8" cx="-147.2" cy="500.3" rx="27.4" ry="12.2"/>
		<path class="st13" d="M-151,494.7c12.2-6.2,24.3-7.3,28.8-3.1c0.2-1.3,0-2.6-0.5-3.7c-3-6-16.5-5.3-30,1.5
			c-13.5,6.9-22,17.3-18.9,23.3c0.3,0.6,0.7,1.1,1.2,1.5C-169.7,508.3-162,500.3-151,494.7z"/>
	</g>
	<g>
		
			<ellipse transform="matrix(0.8479 0.5301 -0.5301 0.8479 268.516 61.6568)" class="st8" cx="26.8" cy="498.8" rx="18.4" ry="8.2"/>
		<path class="st13" d="M28.7,494.7c7.8,4.9,12.6,11.4,11.7,15.5c0.8-0.4,1.5-0.9,1.9-1.6c2.4-3.8-2.7-11.3-11.3-16.7
			c-8.6-5.4-17.6-6.7-19.9-2.8c-0.2,0.4-0.4,0.8-0.5,1.2C14.4,488.6,21.7,490.3,28.7,494.7z"/>
	</g>
	<path class="st13" d="M-53.6,528.7c-10.7-1.4-20.1,2.3-20.9,8.4c-0.1,0.4-0.1,0.9,0,1.3c2.3-4.9,10.7-7.7,20.3-6.4
		c9.9,1.3,17.6,6.6,18,12.2c0.3-0.6,0.5-1.3,0.6-1.9C-34.8,536.2-42.9,530.1-53.6,528.7z"/>
	<circle class="st14" cx="-320.1" cy="380" r="5.7"/>
	<circle class="st14" cx="8.8" cy="222.5" r="2.5"/>
	<circle class="st14" cx="44.8" cy="269.6" r="2.5"/>
	<circle class="st7" cx="-19.5" cy="314.2" r="3.3"/>
	<circle class="st7" cx="117.9" cy="464.4" r="3.3"/>
	<circle class="st7" cx="-300" cy="517.5" r="3.3"/>
	<circle class="st7" cx="-111.3" cy="280.9" r="3.3"/>
	<polygon class="st7" points="-147.7,360.3 -143.3,362.8 -147.8,365.1 -150.3,369.5 -152.6,365.1 -156.9,362.6 -152.5,360.2 
		-150,355.9 	"/>
	<polygon class="st7" points="57.6,314.5 60.4,316.1 57.5,317.6 55.9,320.5 54.4,317.6 51.5,315.9 54.4,314.4 56.1,311.6 	"/>
	<polygon class="st7" points="-278.2,451 -275.4,452.7 -278.3,454.2 -279.9,457 -281.4,454.1 -284.3,452.5 -281.4,451 -279.7,448.1 
			"/>
	<polygon class="st7" points="-276.6,335 -273.7,336.6 -276.6,338.1 -278.3,341 -279.8,338.1 -282.6,336.5 -279.7,334.9 
		-278.1,332.1 	"/>
	<polygon class="st7" points="153.3,427.9 156.1,429.5 153.2,431 151.6,433.9 150.1,430.9 147.3,429.3 150.2,427.8 151.8,425 	"/>
	<polygon class="st7" points="188.4,542.4 191.3,544 188.4,545.5 186.7,548.4 185.2,545.5 182.4,543.9 185.3,542.3 186.9,539.5 	"/>
</g>
</svg>
